<?xml version="1.0" encoding="utf-8"?>
<!-- Generator: Adobe Illustrator 23.0.3, SVG Export Plug-In . SVG Version: 6.00 Build 0)  -->
<svg version="1.1" id="ovbg_x5F_map" xmlns="http://www.w3.org/2000/svg" xmlns:xlink="http://www.w3.org/1999/xlink" x="0px"
	 y="0px" viewBox="0 0 1920 1080" style="enable-background:new 0 0 1920 1080;" xml:space="preserve">
<style type="text/css">
	.st0{fill:#699366;}
	.st1{fill:#537C4E;}
	.st2{fill:#65997D;}
	.st3{fill:#477043;}
	.st4{fill:none;stroke:#9DD8D8;stroke-width:75;stroke-miterlimit:10;}
	.st5{fill:#F7F2DB;}
	.st6{fill:#707070;}
	.st7{fill:none;stroke:#F7F2DB;stroke-width:20;stroke-miterlimit:10;}
	.st8{fill:none;stroke:#F7F2DB;stroke-width:18.75;stroke-miterlimit:10;}
	.st9{fill:none;stroke:#F7F2DB;stroke-width:30;stroke-miterlimit:10;}
	.st10{fill:none;stroke:#F7F2DB;stroke-width:15;stroke-miterlimit:10;}
	.st11{fill:none;stroke:#F7F2DB;stroke-width:20;}
	.st12{fill:none;stroke:#F7F2DB;stroke-width:30;}
	.st13{fill:#9DD8D8;}
	.st14{fill:none;stroke:#2E3192;stroke-width:0.7622;stroke-miterlimit:10;}
	.st15{fill:#4D4D4D;}
	.st16{fill:#5491D3;stroke:#F7F2DB;stroke-width:2.1056;stroke-miterlimit:10;}
	.st17{fill:none;stroke:#F7F2DB;stroke-width:2.1056;stroke-miterlimit:10;}
	.st18{display:none;fill:#F7F2DB;}
	.st19{fill:none;stroke:#F7F2DB;stroke-width:10;}
	.st20{fill:none;stroke:#F7F2DB;stroke-width:8;}
	.st21{fill:#F7F2DB;stroke:#E8E8E8;stroke-width:1.9067;}
	.st22{fill:none;stroke:#699366;stroke-width:4;stroke-linecap:round;}
	.st23{fill:#D1F3FF;}
	.st24{fill:#39C5FB;}
	.st25{fill:#006824;}
	.st26{fill:#001C00;}
	.st27{fill:#383838;}
	.st28{fill:none;stroke:#383838;stroke-width:1.8144;stroke-miterlimit:10;}
	.st29{fill:none;}
	.st30{font-family:'FuturaPT-Medium';}
	.st31{font-size:14.7795px;}
	.st32{letter-spacing:1;}
	.st33{fill:#D1D1D1;stroke:#F7F2DB;stroke-width:5.0212;stroke-linecap:round;stroke-linejoin:round;stroke-miterlimit:10;}
	.st34{fill:#D1D1D1;stroke:#F7F2DB;stroke-width:4.8429;stroke-linecap:round;stroke-linejoin:round;stroke-miterlimit:10;}
	.st35{display:none;fill:#FFFFFF;stroke:#FFFFFF;stroke-width:5.8448;stroke-linecap:round;stroke-linejoin:round;}
	.st36{fill:#D1D1D1;stroke:#F7F2DB;stroke-width:5;stroke-linecap:round;stroke-linejoin:round;stroke-miterlimit:10;}
	.st37{fill:#4C4947;}
	.st38{fill:none;stroke:#383838;stroke-width:1.8256;stroke-miterlimit:10;}
	.st39{font-family:'Poppins-SemiBold';}
	.st40{font-size:21px;}
	.st41{fill:#383838;stroke:#383838;stroke-miterlimit:10;}
	.st42{fill:none;stroke:#383838;stroke-width:1.0986;stroke-miterlimit:10;}
	.st43{fill:none;stroke:#383838;stroke-width:1.0986;stroke-linecap:round;stroke-miterlimit:10;}
	.st44{fill:none;stroke:#383838;stroke-width:0.7629;stroke-miterlimit:10;}
	.st45{fill:#C44343;}
	.st46{fill:#606060;}
	.st47{fill:none;stroke:#F7F2DB;stroke-width:0.4907;stroke-linecap:round;stroke-miterlimit:10;}
	.st48{fill:#383838;stroke:#383838;stroke-width:1.0008;stroke-miterlimit:10;}
	.st49{fill:none;stroke:#383838;stroke-width:0.7825;stroke-linejoin:round;stroke-miterlimit:10;}
	.st50{fill:none;stroke:#383838;stroke-miterlimit:10;}
	.st51{font-size:24px;}
	.st52{fill:#494949;stroke:#F7F2DB;stroke-width:0.7914;}
	.st53{font-family:'Poppins-Medium';}
	.st54{fill:#494949;stroke:#F7F2DB;stroke-width:0.8129;}
	.st55{fill:#494949;stroke:#F7F2DB;stroke-width:0.7893;}
	.st56{fill:#494949;stroke:#F7F2DB;stroke-width:0.8798;}
	.st57{fill:#494949;stroke:#F7F2DB;stroke-width:0.869;}
</style>
<rect id="background" x="0" y="0" class="st0" width="1920" height="1080"/>
<g id="creek_x5F_bush">
	<g id="creek_x5F_bush_x5F_6">
		<path class="st1" d="M1198,382.7c0.5-8.2,8.4-13.1,13.7-8.4c0,2.3,0,4.6,0.1,6.9c2-4.3,4-8.7,7.1-11.4c3.1-2.7,7.6-3.4,10.7-0.1
			c0.8,0.8,1.5,1.9,2.4,2.5c3.7,2.6,6.8-3.4,9.5-7.2c3.8-5.2,10-6.9,15.3-4c5.3,2.8,9.3,10,9.8,17.6c0.6-7.6,2.3-15.5,6.7-19.8
			c4.5-4.3,12.3-2.6,14.4,4.6c1.6-3.9,5.2-5.9,8.5-4.6s5.8,5.7,5.9,10.2c1-4.2,5.4-6,8.1-3.2c0.4,8.9,0.4,17.9,0,26.7
			c-0.1,2-0.3,4.1-1.3,5.4c-2.4,3.1-7.6-0.7-9.7,2.9c-0.8,1.3-0.8,3.2-1.2,4.8c-1.3,6.4-6.8,8.9-11.7,10.3
			c-13.2,3.7-26.6,5.8-40.1,7.9c-18,2.8-36,5.5-54,8.3c-5.7,0.9-11.5,1.8-17.3,1.7c-10.4-0.1-12.6-7.6-10.8-19.8
			c1.4-9.6,1.8-18.8,2.8-28.4c0.8-8.1,2.6-13.3,9-15.7C1179.9,368.3,1198.5,373.2,1198,382.7z"/>
		<path class="st2" d="M1201.4,404.9c0.3-1.8,0.7-3.6,1.4-5.1c0.9-1.9,2.9-3.8,2.7-6.3C1202.6,395.1,1201.1,400.8,1201.4,404.9z"/>
		<path class="st2" d="M1223.3,410.1c0.2-1.3,0.5-2.6,1-3.7c0.7-1.4,2.1-2.8,2-4.6C1224.2,402.9,1223.1,407,1223.3,410.1z"/>
		<path class="st2" d="M1229.7,391.5c0.2-1.3,0.5-2.6,1-3.7c0.7-1.4,2.1-2.8,2-4.6C1230.6,384.3,1229.5,388.5,1229.7,391.5z"/>
		<path class="st2" d="M1247.5,399.9c0.4-2,0.7-3.9,1.5-5.6c1-2.1,3.2-4.3,3-7C1248.8,389,1247.1,395.2,1247.5,399.9z"/>
		<path class="st2" d="M1260.5,406.3c0.4-1.9,0.8-3.9,1.6-5.6c1-2.1,3.3-4.2,3.1-7C1261.9,395.5,1260.2,401.7,1260.5,406.3z"/>
		<path class="st2" d="M1303.6,382.1c0.2-1.2,0.4-2.3,0.3-3.5c-0.1-1.5-0.8-3.6-0.2-4.9C1305.1,376,1304.7,379.9,1303.6,382.1z"/>
		<path class="st2" d="M1291.1,386.8c0.2-1.2,0.4-2.3,0.3-3.5c-0.1-1.5-0.8-3.6-0.2-4.9C1292.5,380.7,1292.2,384.6,1291.1,386.8z"/>
		<path class="st2" d="M1283.7,393.6c0.2-1.2,0.4-2.3,0.3-3.5c-0.1-1.5-0.8-3.6-0.2-4.9C1285.1,387.5,1284.7,391.4,1283.7,393.6z"/>
	</g>
	<g id="creek_x5F_bush_x5F_5">
		<path class="st3" d="M1057.2,410c-0.4-8.3,7-14,12.8-9.8c0.3,2.3,0.5,4.6,0.8,6.9c1.5-4.5,3.1-9.1,5.9-12.1s7.2-4.2,10.7-1.2
			c0.9,0.8,1.7,1.8,2.6,2.3c3.9,2.2,6.4-4.1,8.8-8.2c3.2-5.6,9.3-7.9,14.9-5.7c5.6,2.3,10.4,9,11.7,16.5c-0.2-7.6,0.6-15.7,4.6-20.5
			c4-4.8,12-4,14.9,3.1c1.1-4,4.6-6.4,8-5.5c3.4,0.9,6.4,5.1,7,9.6c0.5-4.3,4.7-6.5,7.8-4.1c1.4,8.9,2.4,17.8,2.9,26.7
			c0.1,2,0.2,4.1-0.7,5.5c-2.1,3.4-7.6,0.1-9.4,3.9c-0.7,1.4-0.5,3.3-0.7,5c-0.6,6.6-5.9,9.6-10.6,11.5c-12.8,5.1-26,8.6-39.2,12.1
			c-17.7,4.7-35.4,9.4-53.1,14.1c-5.7,1.5-11.3,3-17.2,3.6c-10.4,1.1-13.4-6.2-13-18.6c0.3-9.8-0.3-18.9-0.3-28.6
			c0-8.2,1.2-13.6,7.3-16.7C1037.7,397.6,1056.8,400.5,1057.2,410z"/>
		<path class="st2" d="M1036.1,418c0.1-1.3,0.2-2.5,0.6-3.6c0.5-1.4,1.7-2.9,1.4-4.6C1036.2,411.1,1035.6,415.1,1036.1,418z"/>
		<path class="st2" d="M1053.3,428.8c0.1-1.3,0.2-2.5,0.6-3.6c0.5-1.4,1.7-2.9,1.4-4.6C1053.4,421.8,1052.8,425.9,1053.3,428.8z"/>
		<path class="st2" d="M1072.3,419.1c0.1-1.3,0.2-2.5,0.6-3.6c0.5-1.4,1.7-2.9,1.4-4.6C1072.3,412.2,1071.7,416.2,1072.3,419.1z"/>
		<path class="st2" d="M1085.1,404.1c0.1-1.3,0.2-2.5,0.6-3.6c0.5-1.4,1.7-2.9,1.4-4.6C1085.2,397.2,1084.6,401.3,1085.1,404.1z"/>
		<path class="st2" d="M1108.6,406.2c0.1-1.3,0.2-2.5,0.6-3.6c0.5-1.4,1.7-2.9,1.4-4.6C1108.6,399.3,1108,403.3,1108.6,406.2z"/>
		<path class="st2" d="M1141.2,390.6c0.1-1.3,0.2-2.5,0.6-3.6c0.5-1.4,1.7-2.9,1.4-4.6C1141.3,383.7,1140.7,387.8,1141.2,390.6z"/>
		<path class="st2" d="M1155.1,390c0.1-1.3,0.2-2.5,0.6-3.6c0.5-1.4,1.7-2.9,1.4-4.6C1155.2,383.1,1154.5,387.2,1155.1,390z"/>
	</g>
	<g id="creek_x5F_bush_x5F_4">
		<path class="st1" d="M467.4,567.5c0-8.2,7.6-13.6,13.1-9.2c0.2,2.3,0.3,4.6,0.5,6.9c1.7-4.4,3.4-8.9,6.4-11.8
			c2.9-2.9,7.4-3.8,10.7-0.8c0.8,0.8,1.6,1.8,2.5,2.4c3.8,2.4,6.5-3.8,9-7.8c3.4-5.5,9.6-7.5,15-5s9.9,9.4,10.9,16.9
			c0.1-7.6,1.3-15.6,5.4-20.2c4.2-4.6,12.1-3.4,14.7,3.7c1.3-4,4.8-6.2,8.1-5.1c3.3,1.1,6.2,5.3,6.6,9.8c0.7-4.3,5-6.3,7.9-3.7
			c1,8.9,1.6,17.8,1.7,26.7c0,2,0,4.1-1,5.5c-2.2,3.3-7.6-0.2-9.5,3.5c-0.7,1.4-0.6,3.2-0.9,4.9c-0.9,6.5-6.2,9.3-11,11
			c-12.9,4.6-26.2,7.5-39.5,10.4c-17.8,3.9-35.6,7.9-53.3,11.8c-5.7,1.3-11.4,2.5-17.2,2.9c-10.4,0.6-13-6.8-12.1-19.1
			c0.7-9.7,0.5-18.9,0.9-28.5c0.3-8.2,1.7-13.5,8-16.3C448.5,554.3,467.4,558,467.4,567.5z"/>
		<path class="st2" d="M472.3,589.5c0.2-1.8,0.4-3.6,1.1-5.2c0.8-2,2.7-4,2.3-6.5C472.8,579.6,471.7,585.3,472.3,589.5z"/>
		<path class="st2" d="M494.5,593.2c0.2-1.3,0.3-2.6,0.8-3.8c0.6-1.5,2-2.9,1.7-4.8C494.9,586,494.1,590.2,494.5,593.2z"/>
		<path class="st2" d="M499.7,574.3c0.2-1.3,0.3-2.6,0.8-3.8c0.6-1.5,2-2.9,1.7-4.8C500.1,567,499.3,571.2,499.7,574.3z"/>
		<path class="st2" d="M517.9,581.5c0.2-2,0.5-4,1.2-5.7c0.9-2.2,3-4.5,2.6-7.2C518.5,570.5,517.3,576.9,517.9,581.5z"/>
		<path class="st2" d="M531.4,587.1c0.3-2,0.5-4,1.2-5.7c0.9-2.2,3-4.4,2.6-7.1C532,576.2,530.7,582.5,531.4,587.1z"/>
		<path class="st2" d="M572.8,560.1c0.1-1.2,0.2-2.3,0.1-3.5c-0.2-1.5-1.1-3.5-0.5-4.9C573.9,553.9,573.7,557.8,572.8,560.1z"/>
		<path class="st2" d="M560.6,565.6c0.1-1.2,0.2-2.3,0.1-3.5c-0.2-1.5-1.1-3.5-0.5-4.9C561.7,559.4,561.6,563.3,560.6,565.6z"/>
		<path class="st2" d="M553.6,572.9c0.1-1.2,0.2-2.3,0.1-3.5c-0.2-1.5-1.1-3.5-0.5-4.9C554.7,566.7,554.6,570.6,553.6,572.9z"/>
	</g>
	<g id="creek_x5F_bush_x5F_3">
		<path class="st3" d="M333.7,575.9c0.9-8.2,9.1-12.7,14.1-7.8c-0.1,2.3-0.2,4.6-0.2,6.9c2.2-4.2,4.4-8.5,7.7-11.1
			c3.2-2.6,7.8-3,10.7,0.4c0.8,0.9,1.4,2,2.3,2.7c3.6,2.8,7-3.1,9.9-6.8c4-5.1,10.4-6.4,15.6-3.4s8.9,10.5,9.1,18.1
			c0.9-7.6,3-15.5,7.7-19.6c4.7-4.1,12.5-2.1,14.3,5.3c1.7-3.8,5.5-5.7,8.7-4.2s5.6,6,5.5,10.5c1.2-4.2,5.7-5.7,8.3-2.8
			c0,9-0.4,17.9-1.2,26.8c-0.2,2-0.5,4.1-1.6,5.4c-2.6,3-7.6-1-9.9,2.4c-0.9,1.3-1,3.2-1.4,4.8c-1.6,6.4-7.3,8.6-12.2,9.8
			c-13.4,3.1-27,4.6-40.6,6c-18.2,2-36.4,3.9-54.6,5.9c-5.8,0.6-11.7,1.2-17.5,0.9c-10.4-0.5-12.3-8.2-10-20.4
			c1.8-9.6,2.6-18.8,4-28.3c1.2-8.1,3.2-13.3,9.7-15.4C316.2,560.7,334.7,566.5,333.7,575.9z"/>
		<path class="st2" d="M311.6,580.7c0.3-1.2,0.6-2.5,1.1-3.5c0.7-1.3,2.2-2.6,2.1-4.4C312.7,573.8,311.5,577.7,311.6,580.7z"/>
		<path class="st2" d="M326.9,593.9c0.3-1.2,0.6-2.5,1.1-3.5c0.7-1.3,2.2-2.6,2.1-4.4C328.1,587.1,326.8,591,326.9,593.9z"/>
		<path class="st2" d="M347.1,587.3c0.3-1.2,0.6-2.5,1.1-3.5c0.7-1.3,2.2-2.6,2.1-4.4C348.3,580.4,347,584.3,347.1,587.3z"/>
		<path class="st2" d="M362.1,574.4c0.3-1.2,0.6-2.5,1.1-3.5c0.7-1.3,2.2-2.6,2.1-4.4C363.2,567.6,362,571.5,362.1,574.4z"/>
		<path class="st2" d="M385,580c0.3-1.2,0.6-2.5,1.1-3.5c0.7-1.3,2.2-2.6,2.1-4.4C386.1,573.1,384.9,577,385,580z"/>
		<path class="st2" d="M419.6,569.6c0.3-1.2,0.6-2.5,1.1-3.5c0.7-1.3,2.2-2.6,2.1-4.4C420.8,562.7,419.5,566.6,419.6,569.6z"/>
		<path class="st2" d="M433.4,571.1c0.3-1.2,0.6-2.5,1.1-3.5c0.7-1.3,2.2-2.6,2.1-4.4C434.5,564.2,433.3,568.1,433.4,571.1z"/>
	</g>
	<g id="creek_x5F_bush_x5F_2">
		<path class="st1" d="M193.2,575.1c2.2-7.9,11-11,15.1-5.2c-0.5,2.2-0.9,4.5-1.4,6.7c2.8-3.7,5.8-7.6,9.4-9.6s8.1-1.6,10.4,2.2
			c0.6,1,1,2.2,1.8,3c3,3.3,7.4-1.9,10.9-5c4.8-4.3,11.3-4.6,15.8-0.7c4.5,3.9,6.9,11.8,5.8,19.3c2.2-7.3,5.6-14.7,10.9-17.9
			s12.6,0.1,13.1,7.6c2.4-3.5,6.4-4.6,9.3-2.7s4.5,6.8,3.6,11.3c1.9-3.9,6.5-4.7,8.6-1.4c-1.5,8.8-3.4,17.5-5.8,26.1
			c-0.5,1.9-1.2,3.9-2.4,5c-3.1,2.5-7.2-2.3-10.1,0.7c-1.1,1.1-1.5,2.9-2.2,4.5c-2.7,6-8.6,7.2-13.6,7.5c-13.7,0.8-27.3-0.1-40.8-1
			c-18.2-1.2-36.3-2.3-54.5-3.5c-5.8-0.4-11.6-0.7-17.3-2c-10.1-2.3-10.6-10.1-6.3-21.7c3.4-9.1,5.8-18,8.8-27.1
			c2.6-7.8,5.4-12.5,12.2-13.4C178.7,557.2,195.8,566,193.2,575.1z"/>
		<path class="st2" d="M191.8,597.6c0.7-1.7,1.4-3.3,2.4-4.7c1.3-1.7,3.7-3.1,4-5.6C195,588.3,192.3,593.5,191.8,597.6z"/>
		<path class="st2" d="M212,607.4c0.5-1.2,1-2.4,1.8-3.4c1-1.2,2.7-2.3,3-4.1C214.4,600.5,212.5,604.3,212,607.4z"/>
		<path class="st2" d="M222.3,590.6c0.5-1.2,1-2.4,1.8-3.4c1-1.2,2.7-2.3,3-4.1C224.7,583.8,222.7,587.6,222.3,590.6z"/>
		<path class="st2" d="M237.8,602.6c0.8-1.8,1.6-3.7,2.7-5.2c1.4-1.9,4.1-3.5,4.5-6.2C241.4,592.2,238.5,598,237.8,602.6z"/>
		<path class="st2" d="M249.2,611.7c0.8-1.8,1.6-3.7,2.8-5.1c1.5-1.8,4.1-3.4,4.5-6.1C252.9,601.4,249.9,607.1,249.2,611.7z"/>
		<path class="st2" d="M296.5,597.3c0.4-1.1,0.9-2.2,1-3.4c0.2-1.5-0.1-3.7,0.8-4.8C299.2,591.7,298,595.4,296.5,597.3z"/>
		<path class="st2" d="M283.3,599.2c0.4-1.1,0.9-2.2,1-3.4c0.2-1.5-0.1-3.7,0.8-4.8C286,593.5,284.8,597.3,283.3,599.2z"/>
		<path class="st2" d="M274.5,604.3c0.4-1.1,0.9-2.2,1-3.4c0.2-1.5-0.1-3.7,0.8-4.8C277.2,598.6,276,602.4,274.5,604.3z"/>
		<path class="st2" d="M302.6,609c0.5-1.2,1-2.3,1.7-3.3c0.9-1.2,2.6-2.2,2.8-3.9C304.9,602.4,303,606,302.6,609z"/>
	</g>
	<g id="creek_x5F_bush_x5F_1_1_">
		<path class="st3" d="M63.4,542.2c1.3-2.2,2.6-4.4,4.4-5.9c1.8-1.5,4.3-2.3,6.5-1.3c2.1,1,3.4,3.4,4.3,5.7c2.2,5.2,3.4,11,3.4,16.7
			c4.3-4.1,9.7-6.7,15.4-7.4c3.1,7.5,2.5,16.7-1.6,23.3c1.7-4.7,5.6-8.7,10.1-8.6c4.5,0.1,8.9,5.5,7.6,10.5
			c3.3-6.5,9-11.3,15.4-12.9c2.1-0.5,4.3-0.7,6.3,0.2c4.2,1.9,5.9,9,3.1,12.9c0.3-3.1,2.5-5.5,5-6.4c2.5-0.9,5.3-0.5,7.9,0.3
			c3.3,1,6.6,2.9,8.5,6.2c1.8,3.4,1.5,8.4-1.4,10.4c2.3-0.1,4.6-0.1,6.8,0.9c2.1,1,4,3.3,4,5.9c0,2.6-2.5,5-4.6,3.8
			c3-0.8,6.3-0.5,9.3,0.9c2.7,4.7,0.4,11.2-3.5,14.2s-1.1,2.4-5.8,2.7c-9.6,0.5-27,1.7-36.6,2c-6.1,0.2-7.6,0.2-13.7,0.4
			c-7,0.2-18.6,0.5-25.6-0.1c-7.6-0.7-14.7,0.4-22.3-0.3c-8-0.8-26-3.8-33.9-3.6c1-5.6,2.7-7.1,4.6-18.4c3.5-19.4-11.7-60,9.7-61.9
			C50.9,529.9,62.3,539.3,63.4,542.2z"/>
		<path class="st2" d="M65.7,558.4c0.5-2.4,1.1-4.9,2.3-7c1.5-2.7,4.7-5.3,4.4-8.7C67.6,544.9,65.2,552.7,65.7,558.4z"/>
		<path class="st2" d="M51.8,581.6c0.3-1.5,0.7-3.1,1.4-4.4c0.9-1.7,2.9-3.3,2.8-5.5C53,573.2,51.5,578.1,51.8,581.6z"/>
		<path class="st2" d="M85.2,568.2c0.3-1.4,0.6-2.9,1.1-4.1c0.6-1.6,1.8-3.4,1.9-5.3C86.6,560.4,85.4,565,85.2,568.2z"/>
		<path class="st2" d="M92.6,586.8c0.4-1.6,0.7-3.2,1.5-4.6c1-1.7,3.1-3.5,2.9-5.7C93.9,578,92.3,583.1,92.6,586.8z"/>
		<path class="st2" d="M77.1,603.8c0.3-1.6,0.6-3.2,0.5-4.9c-0.1-2.1-1.3-4.9-0.2-6.7C79.4,595.3,78.8,600.7,77.1,603.8z"/>
		<path class="st2" d="M111.7,594.5c0.5-2.4,1.1-4.9,2.3-7c1.5-2.7,4.7-5.3,4.4-8.7C113.6,581.1,111.2,588.8,111.7,594.5z"/>
		<path class="st2" d="M103.7,610.3c0.2-1.1,0.4-2.2,0.3-3.4c-0.1-1.5-0.9-3.4-0.2-4.6C105.4,604.5,104.9,608.2,103.7,610.3z"/>
		<path class="st2" d="M111.7,594.5c0.5-2.4,1.1-4.9,2.3-7c1.5-2.7,4.7-5.3,4.4-8.7C113.6,581.1,111.2,588.8,111.7,594.5z"/>
		<path class="st2" d="M111.7,594.5c0.5-2.4,1.1-4.9,2.3-7c1.5-2.7,4.7-5.3,4.4-8.7C113.6,581.1,111.2,588.8,111.7,594.5z"/>
		<path class="st2" d="M63.3,601.2c0.2-1.3,0.5-2.5,0.4-3.8c-0.1-1.7-1-3.8-0.2-5.3C65.1,594.5,64.6,598.7,63.3,601.2z"/>
		<path class="st2" d="M140.1,593.6c0.5-2.4,1.1-4.9,2.3-7c1.5-2.7,4.7-5.3,4.4-8.7C142.1,580.2,139.7,587.9,140.1,593.6z"/>
	</g>
</g>
<path id="creek_3_" class="st4" d="M2.3,642.7c0,0,115,7.1,180.5,6.8c76.2-0.3,221.7-7.5,395.2-38.1
	c127.1-22.4,564.8-200.6,868.9-182.6c98.2,8.6,162.7,29.9,304.2,48.3c70.4,9.2,106.8-21,166.7-23"/>
<g id="peony_x5F_garden_2_">
	<path class="st5" d="M1178.2,818.2c0.6-37.3,12.5-71.9,32.5-100.4c0.6-0.8,0.4-2-0.3-2.7l-10-8.5c-0.9-0.8-2.3-0.6-2.9,0.4
		c-21.5,31.2-34.3,70.5-34.7,111.1c0,1.1,0.9,2,2,2h11.6C1177.3,820.2,1178.2,819.3,1178.2,818.2z"/>
	<path class="st5" d="M1340.9,638.6v-13.3c0-1.2-1-2.1-2.2-2c-50.1,5.1-94.6,29.1-126.4,64.7c-0.8,0.8-0.6,2.1,0.2,2.9l10.3,8.6
		c0.8,0.7,2,0.6,2.8-0.2c28.9-31.5,68.7-53.7,113.5-58.6C1340.2,640.5,1340.9,639.6,1340.9,638.6z"/>
	<path class="st5" d="M1202.5,820.2h13.2c1.1,0,2-0.9,2-2c0.6-27.6,9-53.2,23.2-74.7c0.6-0.8,0.4-2-0.4-2.6l-11.3-9.6
		c-0.9-0.8-2.3-0.6-3,0.4c-16,24.5-25.5,55.1-25.9,86.5C1200.5,819.2,1201.4,820.2,1202.5,820.2z"/>
	<path class="st5" d="M1312.1,686.4c0.2-5.5,1.1-11.7,2.8-16.8c0.5-1.6-0.9-3-2.5-2.6c-27.6,8.5-52,24.3-71,45.2
		c-0.8,0.8-0.7,2.2,0.2,2.9l11.5,9.6c0.8,0.7,2.1,0.6,2.8-0.2c14.3-16.3,35.6-31.7,54.6-36.2C1311.4,688.1,1312,687.3,1312.1,686.4z
		"/>
	<path class="st5" d="M1256.7,757.6c-10,17.3-15.8,39.2-16.2,60.5c0,1.1,0.9,2,2,2h13.5c1.1,0,2-0.9,2-2
		c0.3-17.2,4.9-35.4,12.7-49.6c0.5-0.8,0.3-1.9-0.4-2.5l-10.6-9C1258.8,756.3,1257.3,756.5,1256.7,757.6z"/>
	<path class="st5" d="M1325.3,719.6c-3.2-3.4-5.9-7.3-8.1-11.5c-0.5-0.9-1.6-1.3-2.5-0.9c-16.6,6.8-31.2,17.2-43.1,30.3
		c-0.8,0.8-0.7,2.1,0.2,2.9l10.5,8.8c0.8,0.7,2,0.6,2.7-0.2c10.8-11.6,24.3-20.6,39.4-26.1C1325.9,722.3,1326.2,720.6,1325.3,719.6z
		"/>
	<path class="st5" d="M1280.2,820.2h14.2c1.1,0,1.9-0.9,2-1.9c1.2-26.8,18.9-50.2,43.2-58.3c0.8-0.3,1.4-1,1.4-1.9v-15.8
		c0-1.3-1.3-2.3-2.5-1.9c-34.1,9-59.4,41.1-60.3,77.8C1278.1,819.2,1279,820.2,1280.2,820.2z"/>
	<path class="st5" d="M1162.8,859.2h174.9c1.1,0,2-1.2,2-2.6v-17c0-1.4-0.9-2.6-2-2.6h-174.9c-1.1,0-2,1.2-2,2.6v17
		C1160.8,858,1161.7,859.2,1162.8,859.2z"/>
	<path class="st5" d="M1540.2,818.2c-0.6-37.3-12.5-71.9-32.5-100.4c-0.6-0.8-0.4-2,0.3-2.7l10-8.5c0.9-0.8,2.3-0.6,2.9,0.4
		c21.5,31.2,34.3,70.5,34.7,111.1c0,1.1-0.9,2-2,2h-11.6C1541.1,820.2,1540.3,819.3,1540.2,818.2z"/>
	<path class="st5" d="M1377.5,638.6v-13.3c0-1.2,1-2.1,2.2-2c50.1,5.1,94.6,29.1,126.4,64.7c0.8,0.8,0.6,2.1-0.2,2.9l-10.3,8.6
		c-0.8,0.7-2,0.6-2.8-0.2c-28.9-31.5-68.7-53.7-113.5-58.6C1378.3,640.5,1377.5,639.6,1377.5,638.6z"/>
	<path class="st5" d="M1516,820.2h-13.2c-1.1,0-2-0.9-2-2c-0.6-27.6-9-53.2-23.2-74.7c-0.6-0.8-0.4-2,0.4-2.6l11.3-9.6
		c0.9-0.8,2.3-0.6,3,0.4c16,24.5,25.5,55.1,25.9,86.5C1518,819.2,1517.1,820.2,1516,820.2z"/>
	<path class="st5" d="M1406.4,686.4c-0.2-5.5-1.1-11.7-2.8-16.8c-0.5-1.6,0.9-3,2.5-2.6c27.6,8.5,52,24.3,71,45.2
		c0.8,0.8,0.7,2.2-0.2,2.9l-11.5,9.6c-0.8,0.7-2.1,0.6-2.8-0.2c-14.3-16.3-35.6-31.7-54.6-36.2
		C1407,688.1,1406.4,687.3,1406.4,686.4z"/>
	<path class="st5" d="M1461.8,757.6c10,17.3,15.8,39.2,16.2,60.5c0,1.1-0.9,2-2,2h-13.5c-1.1,0-2-0.9-2-2
		c-0.3-17.2-4.9-35.4-12.7-49.6c-0.5-0.8-0.3-1.9,0.4-2.5l10.6-9C1459.7,756.3,1461.1,756.5,1461.8,757.6z"/>
	<path class="st5" d="M1393.2,719.6c3.2-3.4,5.9-7.3,8.1-11.5c0.5-0.9,1.6-1.3,2.5-0.9c16.6,6.8,31.2,17.2,43.1,30.3
		c0.8,0.8,0.7,2.1-0.2,2.9l-10.5,8.8c-0.8,0.7-2,0.6-2.7-0.2c-10.8-11.6-24.3-20.6-39.4-26.1
		C1392.6,722.3,1392.2,720.6,1393.2,719.6z"/>
	<path class="st5" d="M1438.3,820.2h-14.2c-1.1,0-1.9-0.9-2-1.9c-1.2-26.8-18.9-50.2-43.2-58.3c-0.8-0.3-1.4-1-1.4-1.9v-15.8
		c0-1.3,1.3-2.3,2.5-1.9c34.1,9,59.4,41.1,60.3,77.8C1440.3,819.2,1439.4,820.2,1438.3,820.2z"/>
	<path class="st5" d="M1380.4,859.2h174.9c1.1,0,2-1,2-2.3v-17.5c0-1.3-0.9-2.3-2-2.3h-174.9c-1.1,0-2,1-2,2.3v17.5
		C1378.4,858.1,1379.3,859.2,1380.4,859.2z"/>
	<path class="st5" d="M1547.4,681.5l-10,8.3c-0.8,0.7-1,1.8-0.4,2.7c22.2,33,39.1,80.2,41.1,125.8c0,1.1,0.9,1.9,2,1.9l12.7,0.1
		c1.1,0,2.1-0.9,2-2.1c-2-49.5-21.1-101.4-44.5-136.2C1549.7,680.9,1548.3,680.7,1547.4,681.5z"/>
	<path class="st6" d="M1396.7,686.5c0-17.9-12.3-32.8-28.9-36.9l1.3-63.7h-17.9l-1.3,63.7c-16.6,4-28.9,19-28.9,36.9
		s12.3,32.8,28.9,36.9l1.3,191.8h17.9l-1.3-191.8C1384.4,719.4,1396.7,704.4,1396.7,686.5z"/>
</g>
<g id="paths">
	<g id="path_x5F_south_x5F_of_x5F_creek">
		<path id="path_x5F_left_x5F_of_x5F_water_x5F_feature_3_" class="st7" d="M355.2,748.8c0,0,44.1,114.3,210.4,84.2
			c90.6-16.4,143.2-135.5,143.2-135.5"/>
		<path id="water_x5F_feature_x5F_bridge_3_" class="st7" d="M630.8,801.2c0,0,64.4,44.1,140,44.1c56,0,106.8-11.4,160.9-37.5
			c76.2-36.7,108-109.4,108-109.4"/>
		<path id="parking_x5F_to_x5F_bike_x5F_right_3_" class="st7" d="M1191.2,921.7h-94.5c-1.1,0-2-0.9-2-2V790.6
			c0,0,39.7-158.6,189.2-218.6"/>
		<path id="parking_x5F_to_x5F_bike_x5F_left_4_" class="st7" d="M943.5,630.6c0,0,121.7,48,151.1,160"/>
		<g id="arena_x5F_st_x5F_to_x5F_bike_3_">
			<path id="going_x5F_left_3_" class="st8" d="M1636.3,1077.8c-0.9-23.3,25.9-121,3.9-308.5c-4.5-25.2-40.4-117.8-92.7-137.9"/>
			<path id="going_x5F_right_3_" class="st8" d="M1640.3,769.3c0,0-18.4-103.5,91.9-134.8"/>
		</g>
	</g>
	<g id="bridge_3_">
		<line class="st9" x1="1774.1" y1="323.2" x2="1723.6" y2="638.6"/>
		<path class="st10" d="M1735.6,560.4c-9.2,79.1-61.4,87.3-61.4,87.3"/>
		<path class="st10" d="M1756.3,620.9c0,0-26.2,7.5-23.7-38"/>
		<path class="st10" d="M1820.7,306.3c-12.1,2.3-48.3,26-56,75.4"/>
		<path class="st10" d="M1713.9,322.1c0,0,64.5,14.8,52.9,46.5"/>
	</g>
	<g id="path_x5F_north_x5F_of_x5F_creek_3_">
		<path id="memory_x5F_garden_x5F_connection_x5F_bottom_3_" class="st11" d="M869.9,364.8c-35.4,55.1-117.1,88.6-188.4,45.9
			c-130.3-74.5-236.2-72-236.2-72"/>
		<path id="memory_x5F_garden_x5F_connection_x5F_top_3_" class="st11" d="M689.1,147.7c-2.6,35.9-22.5,61.1-45.7,69.6
			c-39.2,14.3-90.6-22-130.3-33c-41-11.4-102.5-32.7-146,8.7"/>
		<path id="memory_x5F_garden_x5F_circle_x5F_psth" class="st11" d="M445.4,338.7c0,96.6-76.8,174.8-173.3,174.8
			S95.7,435.3,95.7,338.7S174,163.9,270.5,163.9S445.4,242.1,445.4,338.7z"/>
		<path id="kids_x5F_garden_x5F_2_3_" class="st11" d="M856.3,177.7c0,0-10.1,0.5-26.3,66c-18.5,74.6,10.4,110.8,41.2,121.6
			c94.9,33,150.2-37.8,165.9-61.2"/>
		<path id="kids_x5F_garden_x5F_1_2_" class="st11" d="M1107.9,327.2c0,0,16.7-88.5-29.9-101.5c-35-9.7-64.9-43.7-75.8-59.9"/>
		<path id="daylilly_x5F_circle_3_" class="st11" d="M1286.4,306.4c0,0-1.7-54.4,29.4-105.4c16.1-26.5,53.4-71.6,109.5-78.6
			c62.3-7.7,96.6-1.5,129.5,20.4c72.4,48.4,56.7,114.2,84.6,133"/>
		<path id="kaiser_x5F_entry_x5F_2_3_" class="st11" d="M886.4,193.9c0,0,149.4-12.4,167.8-76.8c13.4-46.8,8.4-117.1,8.4-117.1"/>
		<path id="kaiser_x5F_entry_x5F_1_x5F_to_x5F_3_3_" class="st11" d="M583.6,0c0,0-13.4,151,34.8,147.4
			c70.7-4.3,158.5,6.5,232.7,28.2c87.5,34.2,127.7,130.7,232.4,151.4c90.1,5.7,182.6-20.6,309.5-37.2c129.3-16.9,175.5,1.5,296.9-22
			c41.8-8.1,65.7-51.8,71.6-71.8c14.2-48.1,16.3-196,16.3-196"/>
		<path id="bridge_x5F_connection_x5F_top_3_" class="st11" d="M1571,280.7c97.8-1.9,135.7,62.7,197.4,44.1
			c58-17.4,59.8-29.7,149.3-40.9c0,0-140.5,0-157.4-83c-11.4,40.7,6.8,137.9,6.5,167.7"/>
	</g>
	<path id="bike_x5F_path_2_" class="st12" d="M2.3,1039.9c0,0,54.6,2.5,105.2-53c52.5-57.6,110.9-254.2,280-237.5
		c170.1,16.8,484.9-95.1,580.7-127.1c153.2-50.7,207.2-60.8,315.7-50.3c56.9,5.5,80.4,13.7,105.7,18
		c74.7,12.9,231.9,78.6,323.4,51.5c80.1-23.7,110.6-87.1,204.6-100.3"/>
</g>
<g id="water_x5F_feature">
	<g>
		<path class="st5" d="M943.1,738.7c-3.7,4.4-8.3,14.5-13.1,18.5c-5,4.1-10.9,6.4-12.2,12.1c-1.6,6.9-3.3,10.4-5,14.2
			c-1.9,4.1-16.3,12.4-19.6,14c-6.5,3-14.3,3.4-21.8,3.6c-13.5,0.5-37.3,0-47.8-7.1c-5.6-3.7-13.3-1.9-28.6,7.4
			c-15.6,9.5-45.5,11.3-54.2-0.1c-4.9-6.4-1.7-19.9,3.3-25c4.5-4.7,17.3-20.7,44.6-18.2c8.6,0.8,17.8,0.5,22.3-13.1
			c0.5-1.5-0.1-6.2,5.7-12c13-13,39.8-20,59.5-22c12.6-1.3,18.6-1.2,28.7-7.6c3-1.9,16.3-2.5,20-1.6c10.8,2.6,9,4.5,13.9,9.6
			C944.4,717.4,947,734.1,943.1,738.7z"/>
	</g>
	<g>
		<path class="st13" d="M935.7,739.3c1.2,11.8-12.8,14.8-19.1,23.2c-9.1,12.2-2.8,18.1-19.3,27.9c-21,12.5-42.5,8-65,2.2
			c-26.9-6.9-33,7.2-58.2,12.6c-19.8,4.3-41.9-5.2-27.1-27.7c3.8-5.8,10.4-8.7,16.5-11.6c9.9-4.7,35.6-1.2,41.5-5.6
			c11.9-8.8,7-24.8,28-33.2c19.7-7.9,46.4-11.1,67-14.7c10-1.8,20.8-8.8,31.2,0.2C942.2,722.3,934.4,726.4,935.7,739.3z"/>
	</g>
	<path class="st14" d="M836.5,756.4c0.1-2.2,3.5-3.2,6.3-3.4c2.7-0.2,6.1-0.7,6.9-2.8"/>
	<path class="st14" d="M850.6,777.8c1.1-2.1,3.6-3.6,6.4-3.7c1.7-0.1,3.4,0.3,5,0.1c1.7-0.1,3.5-1.1,3.4-2.5"/>
	<path class="st14" d="M887.3,761.9c3.7,0.9,6.6-4.2,10.4-3.2"/>
	<path class="st14" d="M896.3,734.1c1.7-3.3,5.6-5.9,10-6.6"/>
	<path class="st14" d="M761.3,790.1c1.2-1.9,2.2-2.9,4.5-2.3c0.5,0.1,0.9,0.3,1.4,0.4c2,0.3,3-1.9,3.1-3.6"/>
	<path class="st14" d="M796.7,778c0.8-1.6,1.6-2.2,2.6-2.2c0.6,0,1.5,0.5,2.2,1c0.8,0.6,1.5,0.8,2.5,0.7c1.3-0.1,2.3-1.1,2.3-3"/>
</g>
<g id="memory_x5F_garden_x5F_circle">
	<g id="trees_x5F_around_x5F_memoryGarden_1_">
		<path class="st15" d="M153,255.6c-1.3,3.9-1.8,8.3-0.4,12.1c0.3,0.9,0.7,1.7,1.4,2.2c0.5,0.4,1.2,0.7,1.8,0.9
			c1.1,0.4,2.3,0.7,3.5,0.7c3.4,0,6.2-3.1,8.4-6.1c4-5.2,5.7-13.2-1.3-16.3C161.3,246.9,154.9,250,153,255.6z"/>
		<path class="st1" d="M157.3,253.5c-0.2,2.8,0.4,4.9,2.3,6.4c1.2,0.9,2.4,1.3,4.3,1.5c1.7,0.1,2.9,0.1,5.2-0.5
			c0.4-0.1,0.5,0.1,1-0.2c0.2-0.1,0.4-0.4,0.5-0.6c2.3-3.6,2.6-8.4,2.6-12.9c0-2.3-0.5-4.4-2.1-5.6c-1.1-0.8-2.8-1.2-4.1-1
			c-3.3,0.5-5.1,3.2-6.7,4.9C158.2,247.6,157.3,252.3,157.3,253.5z"/>
		<path class="st15" d="M184,227.3c-1.3,3.9-1.8,8.3-0.4,12.1c0.3,0.9,0.7,1.7,1.4,2.2c0.5,0.4,1.2,0.7,1.8,0.9
			c1.1,0.4,2.3,0.7,3.5,0.7c3.4,0,6.2-3.1,8.4-6.1c4-5.2,5.7-13.2-1.3-16.3C192.3,218.6,186,221.6,184,227.3z"/>
		<path class="st1" d="M188.3,225.2c-0.2,2.8,0.4,4.9,2.3,6.4c1.2,0.9,2.4,1.3,4.3,1.5c1.7,0.1,2.9,0.1,5.2-0.5
			c0.4-0.1,0.5,0.1,1-0.2c0.2-0.1,0.4-0.4,0.5-0.6c2.3-3.6,2.6-8.4,2.6-12.9c0-2.3-0.5-4.4-2.1-5.6c-1.1-0.8-2.8-1.2-4.1-1
			c-3.3,0.5-5.1,3.2-6.7,4.9C189.3,219.2,188.4,223.9,188.3,225.2z"/>
		<path class="st15" d="M225.6,210c-1.3,3.9-1.8,8.3-0.4,12.1c0.3,0.9,0.7,1.7,1.4,2.2c0.5,0.4,1.2,0.7,1.8,0.9
			c1.1,0.4,2.3,0.7,3.5,0.7c3.4,0,6.2-3.1,8.4-6.1c4-5.2,5.7-13.2-1.3-16.3C233.9,201.3,227.5,204.3,225.6,210z"/>
		<path class="st1" d="M229.9,207.9c-0.2,2.8,0.4,4.9,2.3,6.4c1.2,0.9,2.4,1.3,4.3,1.5c1.7,0.1,2.9,0.1,5.2-0.5
			c0.4-0.1,0.5,0.1,1-0.2c0.2-0.1,0.4-0.4,0.5-0.6c2.3-3.6,2.6-8.4,2.6-12.9c0-2.3-0.5-4.4-2.1-5.6c-1.1-0.8-2.8-1.2-4.1-1
			c-3.3,0.5-5.1,3.2-6.7,4.9C230.8,201.9,230,206.7,229.9,207.9z"/>
		<path class="st15" d="M134.4,300.4c-1.3,3.9-1.8,8.3-0.4,12.1c0.3,0.9,0.7,1.7,1.4,2.2c0.5,0.4,1.2,0.7,1.8,0.9
			c1.1,0.4,2.3,0.7,3.5,0.7c3.4,0,6.2-3.1,8.4-6.1c4-5.2,5.7-13.2-1.3-16.3C142.7,291.7,136.3,294.8,134.4,300.4z"/>
		<path class="st1" d="M138.7,298.3c-0.2,2.8,0.4,4.9,2.3,6.4c1.2,0.9,2.4,1.3,4.3,1.5c1.7,0.1,2.9,0.1,5.2-0.5
			c0.4-0.1,0.5,0.1,1-0.2c0.2-0.1,0.4-0.4,0.5-0.6c2.3-3.6,2.6-8.4,2.6-12.9c0-2.3-0.5-4.4-2.1-5.6c-1.1-0.8-2.8-1.2-4.1-1
			c-3.3,0.5-5.1,3.2-6.7,4.9C139.6,292.4,138.7,297.1,138.7,298.3z"/>
		<path class="st15" d="M129.3,345.4c-1.3,3.9-1.8,8.3-0.4,12.1c0.3,0.9,0.7,1.7,1.4,2.2c0.5,0.4,1.2,0.7,1.8,0.9
			c1.1,0.4,2.3,0.7,3.5,0.7c3.4,0,6.2-3.1,8.4-6.1c4-5.2,5.7-13.2-1.3-16.3C137.6,336.7,131.3,339.7,129.3,345.4z"/>
		<path class="st1" d="M133.6,343.3c-0.2,2.8,0.4,4.9,2.3,6.4c1.2,0.9,2.4,1.3,4.3,1.5c1.7,0.1,2.9,0.1,5.2-0.5
			c0.4-0.1,0.5,0.1,1-0.2c0.2-0.1,0.4-0.4,0.5-0.6c2.3-3.6,2.6-8.4,2.6-12.9c0-2.3-0.5-4.4-2.1-5.6c-1.1-0.8-2.8-1.2-4.1-1
			c-3.3,0.5-5.1,3.2-6.7,4.9C134.6,337.3,133.7,342,133.6,343.3z"/>
		<path class="st15" d="M138.5,388.8c-1.3,3.9-1.8,8.3-0.4,12.1c0.3,0.9,0.7,1.7,1.4,2.2c0.5,0.4,1.2,0.7,1.8,0.9
			c1.1,0.4,2.3,0.7,3.5,0.7c3.4,0,6.2-3.1,8.4-6.1c4-5.2,5.7-13.2-1.3-16.3C146.8,380,140.5,383.1,138.5,388.8z"/>
		<path class="st1" d="M142.8,386.6c-0.2,2.8,0.4,4.9,2.3,6.4c1.2,0.9,2.4,1.3,4.3,1.5c1.7,0.1,2.9,0.1,5.2-0.5
			c0.4-0.1,0.5,0.1,1-0.2c0.2-0.1,0.4-0.4,0.5-0.6c2.3-3.6,2.6-8.4,2.6-12.9c0-2.3-0.5-4.4-2.1-5.6c-1.1-0.8-2.8-1.2-4.1-1
			c-3.3,0.5-5.1,3.2-6.7,4.9C143.8,380.7,142.9,385.4,142.8,386.6z"/>
		<path class="st15" d="M161,426.6c-1.3,3.9-1.8,8.3-0.4,12.1c0.3,0.9,0.7,1.7,1.4,2.2c0.5,0.4,1.2,0.7,1.8,0.9
			c1.1,0.4,2.3,0.7,3.5,0.7c3.4,0,6.2-3.1,8.4-6.1c4-5.2,5.7-13.2-1.3-16.3C169.3,417.8,162.9,420.9,161,426.6z"/>
		<path class="st1" d="M165.3,424.4c-0.2,2.8,0.4,4.9,2.3,6.4c1.2,0.9,2.4,1.3,4.3,1.5c1.7,0.1,2.9,0.1,5.2-0.5
			c0.4-0.1,0.5,0.1,1-0.2c0.2-0.1,0.4-0.4,0.5-0.6c2.3-3.6,2.6-8.4,2.6-12.9c0-2.3-0.5-4.4-2.1-5.6c-1.1-0.8-2.8-1.2-4.1-1
			c-3.3,0.5-5.1,3.2-6.7,4.9C166.2,418.5,165.3,423.2,165.3,424.4z"/>
		<path class="st15" d="M198.5,453.9c-1.3,3.9-1.8,8.3-0.4,12.1c0.3,0.9,0.7,1.7,1.4,2.2c0.5,0.4,1.2,0.7,1.8,0.9
			c1.1,0.4,2.3,0.7,3.5,0.7c3.4,0,6.2-3.1,8.4-6.1c4-5.2,5.7-13.2-1.3-16.3C206.8,445.1,200.4,448.2,198.5,453.9z"/>
		<path class="st1" d="M202.8,451.8c-0.2,2.8,0.4,4.9,2.3,6.4c1.2,0.9,2.4,1.3,4.3,1.5c1.7,0.1,2.9,0.1,5.2-0.5
			c0.4-0.1,0.5,0.1,1-0.2c0.2-0.1,0.4-0.4,0.5-0.6c2.3-3.6,2.6-8.4,2.6-12.9c0-2.3-0.5-4.4-2.1-5.6c-1.1-0.8-2.8-1.2-4.1-1
			c-3.3,0.5-5.1,3.2-6.7,4.9C203.7,445.8,202.8,450.5,202.8,451.8z"/>
		<path class="st15" d="M238.4,466.7c-1.3,3.9-1.8,8.3-0.4,12.1c0.3,0.9,0.7,1.7,1.4,2.2c0.5,0.4,1.2,0.7,1.8,0.9
			c1.1,0.4,2.3,0.7,3.5,0.7c3.4,0,6.2-3.1,8.4-6.1c4-5.2,5.7-13.2-1.3-16.3C246.7,458,240.3,461,238.4,466.7z"/>
		<path class="st1" d="M242.7,464.6c-0.2,2.8,0.4,4.9,2.3,6.4c1.2,0.9,2.4,1.3,4.3,1.5c1.7,0.1,2.9,0.1,5.2-0.5
			c0.4-0.1,0.5,0.1,1-0.2c0.2-0.1,0.4-0.4,0.5-0.6c2.3-3.6,2.6-8.4,2.6-12.9c0-2.3-0.5-4.4-2.1-5.6c-1.1-0.8-2.8-1.2-4.1-1
			c-3.3,0.5-5.1,3.2-6.7,4.9C243.6,458.6,242.7,463.4,242.7,464.6z"/>
	</g>
	<g id="memory_x5F_garden_1_">
		<path id="memory_x5F_garden_x5F_path" class="st5" d="M445.4,331.1l-127.3,0.7c-3.1-20.8-21.1-36.8-42.8-36.8
			c-23.9,0-43.3,19.4-43.3,43.3c0,23.9,19.4,43.3,43.3,43.3c21.1,0,38.6-15.1,42.5-35l127.4-1.2L445.4,331.1z"/>
		<circle class="st6" cx="275.2" cy="338.4" r="40.7"/>
		<g id="memory_x5F_gazebo_x5F_icon_1_">
			<polygon class="st5" points="261,355.3 261,352.5 259.3,352.5 259.3,331.7 260.2,331.7 260.2,329.1 254.9,329.1 254.9,331.7 
				255.9,331.7 255.9,352.5 254,352.5 254,355.3 255.9,355.3 255.9,359.8 255.7,359.8 254,359.8 254,361.6 261,361.6 261,359.8 
				259.3,359.8 259.3,355.3 			"/>
			<polygon class="st5" points="270.7,355.3 270.7,352.5 269,352.5 269,331.7 269.9,331.7 269.9,329.1 264.6,329.1 264.6,331.7 
				265.6,331.7 265.6,352.5 263.7,352.5 263.7,355.3 265.6,355.3 265.6,359.8 263.7,359.8 263.7,361.6 270.7,361.6 270.7,359.8 
				269,359.8 269,355.3 			"/>
			<polygon class="st5" points="286.8,355.3 286.8,352.5 285.1,352.5 285.1,331.7 285.9,331.7 285.9,329.1 280.6,329.1 280.6,331.7 
				281.6,331.7 281.6,352.5 279.8,352.5 279.8,355.3 281.6,355.3 281.6,359.8 279.8,359.8 279.8,361.6 286.8,361.6 286.8,359.8 
				285.1,359.8 285.1,355.3 			"/>
			<polygon class="st5" points="296.5,355.3 296.5,352.5 294.8,352.5 294.8,331.7 295.6,331.7 295.6,329.1 290.3,329.1 290.3,331.7 
				291.3,331.7 291.3,352.5 289.5,352.5 289.5,355.3 291.3,355.3 291.3,359.8 289.5,359.8 289.5,361.6 296.5,361.6 296.5,359.8 
				294.8,359.8 294.8,355.3 			"/>
			<path class="st16" d="M275.3,309.7c-10.7,0-19.3,8.6-19.3,19.3l3,0l16.4,0l16.4,0l3,0C294.6,318.4,285.9,309.7,275.3,309.7z"/>
			<path class="st17" d="M275.3,309.7c-7.5,0-15.6,11.4-15.6,19.4h15.6h15.6C290.8,321.2,282.8,309.7,275.3,309.7z"/>
			<path class="st17" d="M275.3,309.7c-5.8,0-9.3,11.4-9.3,19.3l9.3,0l9.3,0C284.5,321.2,281.1,309.7,275.3,309.7z"/>
			<rect x="274.2" y="308.8" class="st18" width="2.1" height="20.2"/>
			<rect x="257.2" y="321.1" class="st18" width="36.1" height="2.1"/>
			<rect x="261.3" y="315" class="st18" width="27.9" height="2.1"/>
		</g>
	</g>
	<path class="st19" d="M394.9,215.8c-84.1,56.9-84.1,188.8,0,246.5"/>
	<path class="st20" d="M345.3,273.9c42,28.5,42,94.4,0,123.2"/>
	<path class="st20" d="M367.1,240.7c61.1,45.1,61.1,149.4,0,195"/>
</g>
<g id="daylily_x5F_garden_1_">
	<g id="daylily_x5F_bottom">
		<path class="st21" d="M1426,234c-2.3-18.4,28.5-25.4,28.5-25.4s32.6,3.9,35,22.2c2.3,18.4-10,33.9-27.5,34.8
			C1444.5,266.6,1428.4,252.4,1426,234z"/>
		<path class="st22" d="M1436.6,211.7c0,0-3.7,22,11.3,40.9c8.3,10.4,13.8,10,19.6-1c10.7-20.5,4.5-43.3,4.5-43.3"/>
		<path class="st22" d="M1454.5,208.7c-1.2,12.5-0.1,25,3.1,37.5"/>
	</g>
	<g id="daylily_x5F_top_x5F_left">
		<path class="st21" d="M1440.2,155.6c16,9.3,2.9,38,2.9,38s-22.8,23.6-38.9,14.3c-16-9.3-21-28.5-11-43
			C1403.2,150.6,1424.2,146.4,1440.2,155.6z"/>
		<path class="st22" d="M1451.6,177.6c0,0-15.3-16.3-39.4-15.8c-13.3,0.3-16.3,4.9-11.1,16.1c9.8,21,31.7,29.8,31.7,29.8"/>
		<path class="st22" d="M1411.4,173.4c9.5,4.4,20.4,10.9,31.7,20.3"/>
	</g>
	<g id="daylily_x5F_top_x5F_right">
		<path class="st21" d="M1502.7,204.5c-15.5,10.1-35.3-14.5-35.3-14.5s-10.8-31,4.7-41.2c15.5-10.1,34.9-5.9,43.3,9.4
			S1518.2,194.3,1502.7,204.5z"/>
		<path class="st22" d="M1480,204.7c0,0,21.4-6.3,31.8-28.1c5.7-12,2.9-16.8-9.4-17.2c-23.1-0.7-40.9,14.9-40.9,14.9"/>
		<path class="st22" d="M1499.8,170.7c-11,4.5-21.8,10.8-32.4,19.3"/>
	</g>
</g>
<g id="ovbg_x5F_icon">
	<g id="wing_x5F_left">
		<path class="st23" d="M1698.6,959c14.4-19.1,30.4-13.4,46.9-9.5c0,8.2,0,11.2,0,11.2S1713,951.5,1698.6,959z"/>
		<path class="st24" d="M1686.6,974.7c14.4-17.7,23-16.5,32.9-14.6c12.3,2.4,14.3,4.1,25.9,3.7c0,8.8,0,9.5,0,9.5s-4.4,1.7-9.6,1.8
			c-5.1,0.1-14.5-1.5-18.1-2.6C1710.6,970.4,1697.1,968.1,1686.6,974.7z"/>
	</g>
	<g id="wing_x5F_right">
		<path class="st25" d="M1834.4,960.5c-14.4,19.1-30.4,13.4-46.9,9.5c0-8.2,0-11.2,0-11.2S1820,968,1834.4,960.5z"/>
		<path class="st26" d="M1846.4,944.7c-14.4,17.7-23,16.5-32.9,14.6c-12.3-2.4-14.3-4.1-25.9-3.7c0-8.8,0-9.5,0-9.5s4.4-1.7,9.6-1.8
			c5.1-0.1,14.5,1.5,18.1,2.6C1822.4,949.1,1835.9,951.3,1846.4,944.7z"/>
	</g>
	<g id="gazebo_x5F_logo">
		<polygon class="st27" points="1753.3,966.7 1753.3,964.4 1751.8,964.4 1751.8,946.4 1752.6,946.4 1752.6,944.2 1748,944.2 
			1748,946.4 1748.8,946.4 1748.8,964.4 1748.7,964.4 1747.2,964.4 1747.2,966.7 1748.7,966.7 1748.8,966.7 1748.8,970.6 
			1748.7,970.6 1747.2,970.6 1747.2,972.1 1748.7,972.1 1751.8,972.1 1753.3,972.1 1753.3,970.6 1751.8,970.6 1751.8,966.7 		"/>
		<polygon class="st27" points="1761.6,966.7 1761.6,964.4 1760.2,964.4 1760.2,946.4 1760.9,946.4 1760.9,944.2 1756.4,944.2 
			1756.4,946.4 1757.2,946.4 1757.2,964.4 1757,964.4 1755.6,964.4 1755.6,966.7 1757,966.7 1757.2,966.7 1757.2,970.6 1757,970.6 
			1755.6,970.6 1755.6,972.1 1757,972.1 1760.2,972.1 1761.6,972.1 1761.6,970.6 1760.2,970.6 1760.2,966.7 		"/>
		<polygon class="st27" points="1777.4,966.7 1777.4,964.4 1776,964.4 1776,946.4 1776.7,946.4 1776.7,944.2 1772.2,944.2 
			1772.2,946.4 1773,946.4 1773,964.4 1772.9,964.4 1771.4,964.4 1771.4,966.7 1772.9,966.7 1773,966.7 1773,970.6 1772.9,970.6 
			1771.4,970.6 1771.4,972.1 1772.9,972.1 1776,972.1 1777.4,972.1 1777.4,970.6 1776,970.6 1776,966.7 		"/>
		<polygon class="st27" points="1785.8,966.7 1785.8,964.4 1784.3,964.4 1784.3,946.4 1785.1,946.4 1785.1,944.2 1780.5,944.2 
			1780.5,946.4 1781.3,946.4 1781.3,964.4 1781.2,964.4 1779.8,964.4 1779.8,966.7 1781.2,966.7 1781.3,966.7 1781.3,970.6 
			1781.2,970.6 1779.8,970.6 1779.8,972.1 1781.2,972.1 1784.3,972.1 1785.8,972.1 1785.8,970.6 1784.3,970.6 1784.3,966.7 		"/>
		<path class="st28" d="M1766.7,927.5c-9.2,0-16.6,7.5-16.6,16.6l2.5,0l14.1,0l14.1,0l2.5,0C1783.3,934.9,1775.9,927.5,1766.7,927.5
			z"/>
		<path class="st28" d="M1766.7,927.5c-6.5,0-13.4,9.8-13.4,16.7h13.4h13.4C1780.1,937.3,1773.2,927.5,1766.7,927.5z"/>
		<path class="st28" d="M1766.7,927.5c-5,0-8,9.8-8,16.7l8,0l8,0C1774.7,937.3,1771.7,927.5,1766.7,927.5z"/>
		<polygon class="st27" points="1767.1,925.2 1766.7,921.7 1766.7,921.7 1766.2,925.2 1765.8,925.2 1765.8,944.2 1767.6,944.2 
			1767.6,925.2 		"/>
		<rect x="1751.1" y="937.2" class="st27" width="31.1" height="1.8"/>
		<rect x="1754.6" y="932" class="st27" width="24.1" height="1.8"/>
	</g>
	<rect x="1686.6" y="984.5" class="st29" width="159.7" height="29.6"/>
	<text id="oshawa_x5F_bontanical_x5F_garden_x5F_text" transform="matrix(1 0 0 1 1706.1738 995.0088)"><tspan x="0" y="0" class="st27 st30 st31 st32">OSHAWA VALLEY</tspan><tspan x="-16.7" y="17.4" class="st27 st30 st31 st32">BOTANICAL GARDENS</tspan></text>
</g>
<g id="buildings_x5F_structure">
	<rect id="parking_2_" x="1191.2" y="914.2" class="st33" width="334.1" height="118.7"/>
	<polygon id="childrens_x5F_arena_x5F_main_1_" class="st34" points="1064.4,1036.7 1064.4,1007.4 1075.3,1007.4 1075.3,984.4 
		1064.4,984.4 1064.4,949.3 1047.3,949.3 1047.3,937.8 1027.7,937.8 1027.7,926.2 996.7,926.2 996.7,914.2 728,914.2 727.8,1036.7 	
		"/>
	<rect id="childrens_x5F_arena_x5F_top_1_" x="727.8" y="954.1" class="st35" width="286.1" height="78.8"/>
	<polygon id="fire_x5F_department_1_" class="st36" points="644.6,941.5 644.6,902.4 404.5,902.4 404.5,941.5 460.9,941.5 
		460.9,955.3 427,955.3 427,1032.9 622.1,1032.9 622.1,955.3 588.2,955.3 588.2,941.5 	"/>
</g>
<g id="entry_x5F_points">
	<g id="gate_x5F_04">
		<path class="st37" d="M1751.7,105h-5.4c-0.7,0-1.3-0.6-1.3-1.3V72.3c0-0.7,0.6-1.3,1.3-1.3h5.4c0.7,0,1.3,0.6,1.3,1.3v31.4
			C1753,104.4,1752.4,105,1751.7,105z"/>
		<path class="st37" d="M1804.7,105h-5.4c-0.7,0-1.3-0.6-1.3-1.3V72.3c0-0.7,0.6-1.3,1.3-1.3h5.4c0.7,0,1.3,0.6,1.3,1.3v31.4
			C1806,104.4,1805.4,105,1804.7,105z"/>
		<path class="st37" d="M1787.2,67.7c-1.1-0.2-2.2-0.3-3.3-0.5c0,0.2,0,0.5,0,0.7c0,5-4,9-9,9c-4.9,0-8.9-4-9-8.9
			c-0.8,0.1-1.6,0.3-2.4,0.4c-5.7,1.1-9.6,2.5-9.6,2.5v15c22-7,43,0,43,0V71C1794,69.4,1790.6,68.4,1787.2,67.7z"/>
		<path class="st37" d="M1775.1,60c-4.4,0-8,3.6-8,8s3.6,8,8,8s8-3.6,8-8S1779.5,60,1775.1,60z M1778.9,72.2c-0.1,0-0.2,0.1-0.3,0.1
			h-1.6c-0.6,0-1,0.4-1,1v0.6c0,0.5-0.4,1-1,1s-1-0.4-1-1v-0.6c0-0.6-0.4-1-1-1h-1.6c-0.3,0-0.6-0.2-0.8-0.4
			c-0.2-0.3-0.2-0.6-0.1-0.9l3.6-8.8c0.1-0.4,0.5-0.6,0.9-0.6h0c0.4,0,0.7,0.3,0.9,0.6l3.5,8.8C1779.7,71.4,1779.4,72,1778.9,72.2z"
			/>
	</g>
	<g id="gate_x5F_03">
		<path class="st37" d="M1033.7,107h-5.4c-0.7,0-1.3-0.6-1.3-1.3V74.3c0-0.7,0.6-1.3,1.3-1.3h5.4c0.7,0,1.3,0.6,1.3,1.3v31.4
			C1035,106.4,1034.4,107,1033.7,107z"/>
		<path class="st37" d="M1086.7,107h-5.4c-0.7,0-1.3-0.6-1.3-1.3V74.3c0-0.7,0.6-1.3,1.3-1.3h5.4c0.7,0,1.3,0.6,1.3,1.3v31.4
			C1088,106.4,1087.4,107,1086.7,107z"/>
		<path class="st37" d="M1069.2,69.7c-1.1-0.2-2.2-0.3-3.3-0.5c0,0.2,0,0.5,0,0.7c0,5-4,9-9,9c-4.9,0-8.9-4-9-8.9
			c-0.8,0.1-1.6,0.3-2.4,0.4c-5.7,1.1-9.6,2.5-9.6,2.5v15c22-7,43,0,43,0V73C1076,71.4,1072.6,70.4,1069.2,69.7z"/>
		<path class="st37" d="M1057.1,62c-4.4,0-8,3.6-8,8s3.6,8,8,8s8-3.6,8-8S1061.5,62,1057.1,62z M1060.9,74.2c-0.1,0-0.2,0.1-0.3,0.1
			h-1.6c-0.6,0-1,0.4-1,1v0.6c0,0.5-0.4,1-1,1s-1-0.4-1-1v-0.6c0-0.6-0.4-1-1-1h-1.6c-0.3,0-0.6-0.2-0.8-0.4
			c-0.2-0.3-0.2-0.6-0.1-0.9l3.6-8.8c0.1-0.4,0.5-0.6,0.9-0.6h0c0.4,0,0.7,0.3,0.9,0.6l3.5,8.8C1061.7,73.4,1061.4,74,1060.9,74.2z"
			/>
	</g>
	<g id="gate_x5F_02">
		<path class="st37" d="M556.7,100h-5.4c-0.7,0-1.3-0.6-1.3-1.3V67.3c0-0.7,0.6-1.3,1.3-1.3h5.4c0.7,0,1.3,0.6,1.3,1.3v31.4
			C558,99.4,557.4,100,556.7,100z"/>
		<path class="st37" d="M609.7,100h-5.4c-0.7,0-1.3-0.6-1.3-1.3V67.3c0-0.7,0.6-1.3,1.3-1.3h5.4c0.7,0,1.3,0.6,1.3,1.3v31.4
			C611,99.4,610.4,100,609.7,100z"/>
		<path class="st37" d="M592.2,62.7c-1.1-0.2-2.2-0.3-3.3-0.5c0,0.2,0,0.5,0,0.7c0,5-4,9-9,9c-4.9,0-8.9-4-9-8.9
			c-0.8,0.1-1.6,0.3-2.4,0.4c-5.7,1.1-9.6,2.5-9.6,2.5v15c22-7,43,0,43,0V66C599,64.4,595.6,63.4,592.2,62.7z"/>
		<path class="st37" d="M580.1,55c-4.4,0-8,3.6-8,8s3.6,8,8,8s8-3.6,8-8S584.5,55,580.1,55z M583.9,67.2c-0.1,0-0.2,0.1-0.3,0.1H582
			c-0.6,0-1,0.4-1,1v0.6c0,0.5-0.4,1-1,1c-0.5,0-1-0.4-1-1v-0.6c0-0.6-0.4-1-1-1h-1.6c-0.3,0-0.6-0.2-0.8-0.4
			c-0.2-0.3-0.2-0.6-0.1-0.9l3.6-8.8c0.1-0.4,0.5-0.6,0.9-0.6h0c0.4,0,0.7,0.3,0.9,0.6l3.5,8.8C584.7,66.4,584.4,67,583.9,67.2z"/>
	</g>
	<g id="gate_x5F_01">
		<path class="st37" d="M101.7,967h-5.4c-0.7,0-1.3-0.6-1.3-1.3v-31.4c0-0.7,0.6-1.3,1.3-1.3h5.4c0.7,0,1.3,0.6,1.3,1.3v31.4
			C103,966.4,102.4,967,101.7,967z"/>
		<path class="st37" d="M154.7,967h-5.4c-0.7,0-1.3-0.6-1.3-1.3v-31.4c0-0.7,0.6-1.3,1.3-1.3h5.4c0.7,0,1.3,0.6,1.3,1.3v31.4
			C156,966.4,155.4,967,154.7,967z"/>
		<path class="st37" d="M137.2,929.7c-1.1-0.2-2.2-0.3-3.3-0.5c0,0.2,0,0.5,0,0.7c0,5-4,9-9,9c-4.9,0-8.9-4-9-8.9
			c-0.8,0.1-1.6,0.3-2.4,0.4c-5.7,1.1-9.6,2.5-9.6,2.5v15c22-7,43,0,43,0v-15C144,931.4,140.6,930.4,137.2,929.7z"/>
		<path class="st37" d="M125.1,922c-4.4,0-8,3.6-8,8s3.6,8,8,8s8-3.6,8-8S129.5,922,125.1,922z M128.9,934.2c-0.1,0-0.2,0.1-0.3,0.1
			H127c-0.6,0-1,0.4-1,1v0.6c0,0.5-0.4,1-1,1c-0.5,0-1-0.4-1-1v-0.6c0-0.6-0.4-1-1-1h-1.6c-0.3,0-0.6-0.2-0.8-0.4
			c-0.2-0.3-0.2-0.6-0.1-0.9l3.6-8.8c0.1-0.4,0.5-0.6,0.9-0.6h0c0.4,0,0.7,0.3,0.9,0.6l3.5,8.8C129.7,933.4,129.4,934,128.9,934.2z"
			/>
	</g>
</g>
<g id="navigation_x5F_paths">
	<g id="from_x5F_water_x5F_feature">
		<path id="water_x5F_feature_x5F_to_x5F_peony" class="st29" d="M827.1,703.7v-27.9c0-4.2,2.6-8.4,6.7-9.4
			c66.1-16.6,255.5-96.2,366.2-98.3c26.3-0.5,103.9,1.5,150.6,12.9c4.8,1.2,8.4,5,8.4,9.9V871"/>
		<path id="water_x5F_feature_x5F_to_x5F_bridge" class="st29" d="M827.1,703.7v-27.9c0-4.2,2.6-8.3,6.7-9.4
			c62.6-16.6,252.9-91.7,355.5-96.6c43-2.1,108.7,2.3,169.6,13.9c110.8,21.1,346.8,110.1,365.4,39.5c5.7-21.8,16.1-88.6,26.1-151.5"
			/>
		<path id="water_x5F_feature_x5F_to_x5F_memory_x5F_garden" class="st29" d="M826.9,703.5v-27.9c0-4.2,2.6-8.3,6.7-9.4
			c75.9-20.9,275.1-102.5,378.3-98.3c41.7,1.7,117.7,7.7,167.5,20.3c98.4,24.8,322.9,104.5,344.7,34.8c11.9-38,32-207.7,45.3-271.6
			c1.9-9.2-4.2-18.1-13.4-19.8c-70.5-12.9-104.2-44.7-145.1-49.1c-39.9-4.3-91.7-0.2-143.6,0.6c-102.6,1.5-276.4,51.2-381.5,44.7
			c0,0-24.7-3.4-52.6-18.2c-20.8,31-82,86.1-163.4,55.2c-47.6,65.3-124.9,83.1-188.4,45.9c-23.4-13.8-75.7-39.6-122.3-52.7
			c-49.2-13.9-87-19.1-112.8-19.2l-125.4,0.7"/>
		<path id="water_x5F_feature_x5F_to_x5F_bike_x5F_path" class="st29" d="M827.1,703.7v-27.9c0-4.2,2.6-8.3,6.7-9.4
			c72.6-20.5,264.7-97.6,372.4-98c36.2-0.2,96.7,5.1,146.3,13.9c112.3,19.9,199,70.4,333.2,64.6"/>
		<path id="water_x5F_feature_x5F_to_x5F_daylily" class="st29" d="M827.1,703.7v-27.9c0-4.2,2.6-8.1,6.7-9.4
			c71.1-22.8,281.2-99.7,372.1-98.3c66.9,1,125.9,8.6,176.3,20.6c109.7,26.1,320.3,104.2,342,34.4c11.9-38,32-207.7,45.3-271.6
			c1.9-9.2-4.2-18.1-13.4-19.8c-70.5-12.9-104.2-44.7-145.1-49.1c-39.9-4.3-143.6,0.6-143.6,0.6c-4.5,0.1-8.2-3.5-8.2-8V272"/>
	</g>
	<g id="from_x5F_peony">
		<path id="peony_x5F_to_x5F_daylily" class="st29" d="M1359.1,871l-0.2-266.1c0-10.4,9.7-17.3,20-15.3
			c109.9,21.2,322.1,101.3,345.3,33.4c11.7-34.1,36.2-211.9,45.3-271.6c1.4-9.2-4.5-18.2-13.7-19.9c-70.3-13-104-44.7-144.9-49.1
			c-39.9-4.3-143.6,0.6-143.6,0.6c-4.5,0.1-8.2-3.5-8.2-8V272"/>
		<path id="peony_x5F_to_x5F_bridge" class="st29" d="M1359.1,871l-0.3-266.1c0-10.4,9.7-17.3,20-15.3
			c109.9,21.2,323.1,101.3,346.3,33.4c11.7-34.1,17.7-86.4,26.8-146"/>
		<path id="peony_x5F_to_x5F_bike_x5F_path" class="st29" d="M1359.1,871l-0.3-266.1c0-10.4,9.7-17.3,20-15.3
			c109.9,21.2,188.2,62.8,306.9,57.2"/>
		<path id="peony_x5F_to_x5F_memory_x5F_garden" class="st29" d="M1359.1,871V603.6c0-9.3,8.5-16.5,17.6-14.8
			c117.9,22.4,326.7,100.2,347.4,34c11.9-38,32-207.7,45.3-271.6c1.9-9.2-4.2-18.1-13.4-19.8c-70.5-12.9-104.2-44.7-145.1-49.1
			c-39.9-4.3-91.7-0.2-143.6,0.6c-102.6,1.5-276.4,51.2-381.5,44.7c0,0-24.7-3.4-52.6-18.2c-20.8,31-82,86.1-163.4,55.2
			c-47.6,65.3-124.9,83.1-188.4,45.9c-23.4-13.8-75.7-39.6-122.3-52.7c-49.2-13.9-87-19.1-112.8-19.2l-125.4,0.7"/>
	</g>
	<g id="from_x5F_bike_x5F_path">
		<path id="bike_x5F_path_x5F_to_x5F_daylily" class="st29" d="M1723.6,638.6l45.8-287.1c1.4-9.2-4.5-18.2-13.7-19.9
			c-70.3-13-104-44.7-144.9-49.1c-39.9-4.3-143.6,0.6-143.6,0.6c-4.5,0.1-8.2-3.5-8.2-8V272"/>
		<path id="bike_x5F_path_x5F_to_x5F_peony" class="st29" d="M1685.6,646.8c-118.7,5.6-196.9-36-306.9-57.2c-10.3-2-20,4.8-20,15.3
			l0.3,266.1"/>
		<path id="bike_x5F_path_x5F_to_x5F_bridge" class="st29" d="M1719.9,638.4c0,0,25-133.1,35.1-195.9"/>
		<path id="bike_x5F_path_x5F_to_x5F_memory_x5F_garden" class="st29" d="M1723.6,638.6l45.7-287.3c1.9-9.2-4.2-18.1-13.4-19.8
			c-70.5-12.9-104.2-44.7-145.1-49.1c-39.9-4.3-91.7-0.2-143.6,0.6c-102.6,1.5-276.4,51.2-381.5,44.7c0,0-24.7-3.4-52.6-18.2
			c-20.8,31-82,86.1-163.4,55.2c-47.6,65.3-124.9,83.1-188.4,45.9c-23.4-13.8-75.7-39.6-122.3-52.7c-49.2-13.9-87-19.1-112.8-19.2
			l-125.4,0.7"/>
	</g>
	<g id="from_x5F_bridge">
		<path id="bridge_x5F_to_x5F_daylily_1_" class="st29" d="M1724.2,623.1l45.3-271.6c1.4-9.2-4.5-18.2-13.7-19.9
			c-70.3-13-104-44.7-144.9-49.1c-39.9-4.3-143.6,0.6-143.6,0.6c-4.5,0.1-8.2-3.5-8.2-8V272"/>
		<path id="bridge_x5F_to_x5F_bike_x5F_path_1_" class="st29" d="M1755,442.5c-10.1,62.9-35.1,195.9-35.1,195.9"/>
		<path id="bridge_x5F_to_x5F_peony" class="st29" d="M1751.9,477c-9.1,59.6-15.1,111.9-26.8,146c-23.3,67.9-236.4-12.2-346.3-33.4
			c-10.3-2-20,4.8-20,15.3l0.3,266.1"/>
		<path id="bridge_x5F_to_x5F_memory_x5F_garden" class="st29" d="M1724.1,622.9l45.3-271.6c1.9-9.2-4.2-18.1-13.4-19.8
			c-70.5-12.9-104.2-44.7-145.1-49.1c-39.9-4.3-91.7-0.2-143.6,0.6c-102.6,1.5-276.4,51.2-381.5,44.7c0,0-24.7-3.4-52.6-18.2
			c-20.8,31-82,86.1-163.4,55.2c-47.6,65.3-124.9,83.1-188.4,45.9c-23.4-13.8-75.7-39.6-122.3-52.7c-49.2-13.9-87-19.1-112.8-19.2
			l-125.4,0.7"/>
	</g>
	<g id="from_x5F_daylily">
		<path id="daylily_x5F_to_x5F_peony" class="st29" d="M1459.2,272v3.2c0,4.5,3.7,8.1,8.2,8c0,0,103.7-4.9,143.6-0.6
			c40.8,4.4,74.6,36.1,144.9,49.1c9.2,1.7,15.1,10.7,13.7,19.9c-9.1,59.6-33.6,237.4-45.3,271.6c-23.3,67.9-235.4-12.2-345.3-33.4
			c-10.3-2-20,4.8-20,15.3l0.2,266.1"/>
		<path id="daylily_x5F_to_x5F_bridge" class="st29" d="M1459.2,272v3.2c0,4.5,3.7,8.1,8.2,8c0,0,103.7-4.9,143.6-0.6
			c40.8,4.4,74.6,36.1,144.9,49.1c9.2,1.7,15.1,10.7,13.7,19.9l-45.3,271.6"/>
		<path id="daylily_x5F_to_x5F_memory_x5F_garden" class="st29" d="M1459.2,272v2c0,5.2-4,9.6-9.3,10
			c-104.2,7.4-266.3,49.8-364.2,43.6c0,0-24.7-3.4-52.6-18.2c-20.8,31-82,86.1-163.4,55.2c-47.6,65.3-124.9,83.1-188.4,45.9
			c-23.4-13.8-75.7-39.6-122.3-52.7c-49.2-13.9-87-19.1-112.8-19.2l-125.4,0.7"/>
		<path id="daylily_x5F_to_x5F_bike_x5F_path" class="st29" d="M1459.2,272v3.2c0,4.5,3.7,8.1,8.2,8c0,0,103.7-4.9,143.6-0.6
			c40.8,4.4,74.6,36.1,144.9,49.1c9.2,1.7,15.1,10.7,13.7,19.9l-45.8,287.1"/>
	</g>
	<g id="from_x5F_memory_x5F_garden">
		<path id="daylily_x5F_to_x5F_peony_1_" class="st29" d="M1459.2,272v3.2c0,4.5,3.7,8.1,8.2,8c0,0,103.7-4.9,143.6-0.6
			c40.8,4.4,74.6,36.1,144.9,49.1c9.2,1.7,15.1,10.7,13.7,19.9c-9.1,59.6-33.6,237.4-45.3,271.6c-23.3,67.9-235.4-12.2-345.3-33.4
			c-10.3-2-20,4.8-20,15.3l0.2,266.1"/>
		<path id="daylily_x5F_to_x5F_bridge_1_" class="st29" d="M1459.2,272v3.2c0,4.5,3.7,8.1,8.2,8c0,0,103.7-4.9,143.6-0.6
			c40.8,4.4,74.6,36.1,144.9,49.1c9.2,1.7,15.1,10.7,13.7,19.9l-45.3,271.6"/>
		<path id="daylily_x5F_to_x5F_memory_x5F_garden_1_" class="st29" d="M1459.2,272v2c0,5.2-4,9.6-9.3,10
			c-104.2,7.4-266.3,49.8-364.2,43.6c0,0-24.7-3.4-52.6-18.2c-20.8,31-82,86.1-163.4,55.2c-47.6,65.3-124.9,83.1-188.4,45.9
			c-23.4-13.8-75.7-39.6-122.3-52.7c-49.2-13.9-87-19.1-112.8-19.2l-125.4,0.7"/>
		<path id="daylily_x5F_to_x5F_bike_x5F_path_1_" class="st29" d="M1459.2,272v3.2c0,4.5,3.7,8.1,8.2,8c0,0,103.7-4.9,143.6-0.6
			c40.8,4.4,74.6,36.1,144.9,49.1c9.2,1.7,15.1,10.7,13.7,19.9l-45.8,287.1"/>
	</g>
</g>
<g id="gazebo">
	<circle class="st5" cx="1358.9" cy="686.8" r="33.4"/>
	<g id="gazebo_x5F_icon">
		<polygon class="st27" points="1345.7,701.6 1345.7,699.2 1344.3,699.2 1344.3,681.1 1345,681.1 1345,678.9 1340.4,678.9 
			1340.4,681.1 1341.2,681.1 1341.2,699.2 1341.1,699.2 1339.7,699.2 1339.7,701.6 1341.1,701.6 1341.2,701.6 1341.2,705.5 
			1341.1,705.5 1339.7,705.5 1339.7,707 1341.1,707 1344.3,707 1345.7,707 1345.7,705.5 1344.3,705.5 1344.3,701.6 		"/>
		<polygon class="st27" points="1354.1,701.6 1354.1,699.2 1352.7,699.2 1352.7,681.1 1353.4,681.1 1353.4,678.9 1348.8,678.9 
			1348.8,681.1 1349.6,681.1 1349.6,699.2 1349.5,699.2 1348.1,699.2 1348.1,701.6 1349.5,701.6 1349.6,701.6 1349.6,705.5 
			1349.5,705.5 1348.1,705.5 1348.1,707 1349.5,707 1352.7,707 1354.1,707 1354.1,705.5 1352.7,705.5 1352.7,701.6 		"/>
		<polygon class="st27" points="1370,701.6 1370,699.2 1368.6,699.2 1368.6,681.1 1369.3,681.1 1369.3,678.9 1364.7,678.9 
			1364.7,681.1 1365.6,681.1 1365.6,699.2 1365.4,699.2 1364,699.2 1364,701.6 1365.4,701.6 1365.6,701.6 1365.6,705.5 
			1365.4,705.5 1364,705.5 1364,707 1365.4,707 1368.6,707 1370,707 1370,705.5 1368.6,705.5 1368.6,701.6 		"/>
		<polygon class="st27" points="1378.4,701.6 1378.4,699.2 1377,699.2 1377,681.1 1377.7,681.1 1377.7,678.9 1373.1,678.9 
			1373.1,681.1 1374,681.1 1374,699.2 1373.8,699.2 1372.4,699.2 1372.4,701.6 1373.8,701.6 1374,701.6 1374,705.5 1373.8,705.5 
			1372.4,705.5 1372.4,707 1373.8,707 1377,707 1378.4,707 1378.4,705.5 1377,705.5 1377,701.6 		"/>
		<path class="st38" d="M1359.2,662.1c-9.3,0-16.8,7.5-16.8,16.8l2.6,0l14.2,0l14.2,0l2.6,0C1376,669.6,1368.5,662.1,1359.2,662.1z"
			/>
		<path class="st38" d="M1359.2,662.1c-6.5,0-13.5,9.9-13.5,16.8h13.5h13.5C1372.7,672,1365.7,662.1,1359.2,662.1z"/>
		<path class="st38" d="M1359.2,662.1c-5.1,0-8,9.9-8,16.8l8,0l8,0C1367.2,672,1364.3,662.1,1359.2,662.1z"/>
		<polygon class="st27" points="1359.7,659.8 1359.2,656.3 1359.2,656.3 1358.8,659.8 1358.3,659.8 1358.3,678.9 1360.1,678.9 
			1360.1,659.8 		"/>
		<rect x="1343.6" y="671.9" class="st27" width="31.3" height="1.8"/>
		<rect x="1347.1" y="666.7" class="st27" width="24.2" height="1.8"/>
	</g>
</g>
<g id="streets">
	<g id="street">
		<path class="st5" d="M1875,45v990H45V45H1875 M1920,0H0v1080h1920V0L1920,0z"/>
	</g>
	<g id="street_x5F_names_x5F_text">
		<text transform="matrix(1 0 0 1 903.8672 1061.0557)" class="st3 st39 st40">Arena St</text>
		<text transform="matrix(1 0 0 1 899.8149 31.271)" class="st3 st39 st40">Kaiser Cr</text>
		<g>
			<text transform="matrix(0 -1 1 0 33.1895 638.5944)" class="st3 st39 st40">Adelaide Ave W</text>
		</g>
		<g>
			<text transform="matrix(0 -1 1 0 1903.7422 606.7426)" class="st3 st39 st40">Bond St W</text>
		</g>
	</g>
</g>
<g id="icons">
	<g id="bike_x5F_path_x5F_icon">
		<g id="pin">
			<path class="st41" d="M1518.6,513.6c0-22.5-18.3-40.8-40.8-40.8s-40.8,18.3-40.8,40.8c0,22.1,17.6,40.1,39.5,40.7v56.2l1.3,2.2
				l1.3-2.2v-56.2C1501,553.7,1518.6,535.7,1518.6,513.6z"/>
			<circle class="st5" cx="1477.8" cy="513.6" r="38.8"/>
		</g>
		<g id="Bike">
			<path class="st42" d="M1465.9,519.3c-4.8,0-8.6,3.9-8.6,8.6c0,4.8,3.9,8.6,8.6,8.6s8.6-3.9,8.6-8.6
				C1474.5,523.1,1470.6,519.3,1465.9,519.3z M1465.9,535.7c-4.3,0-7.8-3.5-7.8-7.8c0-4.3,3.5-7.8,7.8-7.8c4.3,0,7.8,3.5,7.8,7.8
				C1473.7,532.2,1470.2,535.7,1465.9,535.7z"/>
			<circle class="st27" cx="1465.8" cy="528.3" r="1"/>
			<path class="st42" d="M1492.3,517.3c-4.8,0-8.6,3.9-8.6,8.6s3.9,8.6,8.6,8.6c4.8,0,8.6-3.9,8.6-8.6S1497,517.3,1492.3,517.3z
				 M1492.3,533.7c-4.3,0-7.8-3.5-7.8-7.8s3.5-7.8,7.8-7.8c4.3,0,7.8,3.5,7.8,7.8S1496.6,533.7,1492.3,533.7z"/>
			<circle class="st27" cx="1492.3" cy="525.9" r="1"/>
			<polygon class="st42" points="1466,528.3 1478.8,527.4 1484.9,513.1 1471.8,514.1 			"/>
			<line class="st42" x1="1478.8" y1="527.4" x2="1470.8" y2="512.1"/>
			<line class="st42" x1="1484.3" y1="510.5" x2="1492.3" y2="526.3"/>
			<path class="st43" d="M1484.4,510.6l6.1-0.5c0.2,0,0.5,0,0.7,0c0.4,0.1,0.8,0.4,1,0.9c0.1,0.2,0.2,0.3,0.2,0.5
				c-0.1,0.3-0.3,0.6-0.6,0.7c-0.4,0.1-0.7,0.2-1.1,0.2"/>
			<path class="st43" d="M1488.4,510.3l2-0.2c0.2,0,0.5,0,0.7,0c0.4,0.1,0.8,0.4,1,0.9c0.1,0.2,0.2,0.3,0.2,0.5
				c-0.1,0.3-0.3,0.6-0.6,0.7c-0.4,0.1-0.7,0.2-1.1,0.2"/>
			<circle cx="1478.8" cy="527.4" r="1.1"/>
			<circle class="st27" cx="1479" cy="491.9" r="4.6"/>
			<path class="st27" d="M1487.5,508.1l-5.4-2.1l-3.7-7.3c0,0,0,0,0,0c-0.1-0.3-0.3-0.5-0.6-0.6c-0.2-0.3-0.6-0.6-0.9-0.8l-2.3-1.2
				c-1.4-0.8-3.2-0.2-4,1.2l-5.6,10.4c0,0,0,0.1,0,0.1c0,0-0.1,0.1-0.1,0.1l-0.2,0.5c-0.6,1.1-0.2,2.4,0.9,2.9l0.6,0.3
				c0,0,0,0,0.1,0.1l2.3,1.2c0,0,0.1,0,0.1,0l5.8,3.1c0.1,0.1,0.2,0.1,0.3,0.1l2.5,11.7c0.1,0.7,0.8,1.1,1.4,0.9l1.2-0.2
				c0.7-0.1,1.1-0.8,0.9-1.4l-2.9-13.9c0-0.1,0-0.2-0.1-0.2c-0.2-0.5-0.5-1-1.1-1.3l-3.3-1.8l3.9-7.3l2.4,4.7c0,0,0,0,0,0
				c0.1,0.2,0.3,0.4,0.5,0.5c0.1,0.3,0.4,0.6,0.7,0.8l5.5,2.2c0,0,0,0,0,0c0.6,0.2,1.3-0.1,1.6-0.7l0.2-0.5
				C1488.5,509.1,1488.2,508.4,1487.5,508.1z"/>
		</g>
		<line id="line1" class="st44" x1="1456" y1="539.6" x2="1501.5" y2="536.5"/>
		<line id="line2" class="st44" x1="1461.9" y1="542.2" x2="1495.7" y2="539.9"/>
		<line id="line3" class="st44" x1="1465.4" y1="544.7" x2="1492.9" y2="542.9"/>
	</g>
	<g id="compass_1_">
		<g id="Compass">
			<path class="st27" d="M272.2,955.4l6-11.3l-11.3,6l1,4.3L272.2,955.4z"/>
			<path class="st27" d="M245.9,955.4l4.3-1l1-4.3l-11.3-6L245.9,955.4z"/>
			<path class="st27" d="M245.9,971l-6,11.3l11.3-6l-1-4.3L245.9,971z"/>
			<path class="st27" d="M272.2,971l-4.3,1l-1,4.3l11.3,6L272.2,971z"/>
			<path class="st27" d="M260.9,963.2l6.3,6.3l26.3-6.3l-26.3-6.3L260.9,963.2z"/>
			<path class="st27" d="M265.3,955.1l-6.3-26.3l-6.3,26.3l6.3,6.3L265.3,955.1z"/>
			<path class="st45" d="M257.2,963.2l-6.3-6.3l-26.3,6.3l26.3,6.3L257.2,963.2z"/>
			<path class="st27" d="M252.8,971.4l6.3,26.3l6.3-26.3l-6.3-6.3L252.8,971.4z"/>
		</g>
		<g id="north">
			<path class="st27" d="M215.4,958.2l4.9,6.1v-4.2c0-0.6-0.1-1-0.3-1.2c-0.2-0.3-0.6-0.4-1.2-0.4v-0.3h3.3v0.3
				c-0.4,0.1-0.7,0.1-0.8,0.2c-0.1,0.1-0.3,0.2-0.3,0.4c-0.1,0.2-0.1,0.5-0.1,1v8.2h-0.2l-6.7-8.2v6.3c0,0.6,0.1,1,0.4,1.1
				c0.3,0.2,0.6,0.3,0.9,0.3h0.2v0.3h-3.5v-0.3c0.5,0,0.9-0.1,1.1-0.3c0.2-0.2,0.3-0.6,0.3-1.1v-7l-0.2-0.3
				c-0.2-0.3-0.4-0.4-0.6-0.5c-0.2-0.1-0.4-0.1-0.7-0.1v-0.3H215.4z"/>
		</g>
		<g id="south">
			<path class="st27" d="M303.4,958.1l0.1,3.3h-0.3c-0.1-0.8-0.5-1.5-1-2c-0.6-0.5-1.1-0.8-1.8-0.8c-0.5,0-0.9,0.1-1.2,0.4
				c-0.3,0.3-0.4,0.6-0.4,0.9c0,0.2,0.1,0.4,0.2,0.6c0.1,0.2,0.4,0.5,0.7,0.7c0.2,0.2,0.8,0.4,1.6,0.9c1.2,0.6,1.9,1.1,2.3,1.6
				c0.4,0.5,0.6,1.1,0.6,1.7c0,0.8-0.3,1.5-1,2.1c-0.6,0.6-1.5,0.9-2.4,0.9c-0.3,0-0.6,0-0.9-0.1c-0.3-0.1-0.6-0.2-1-0.4
				c-0.2-0.1-0.4-0.1-0.6-0.1c-0.1,0-0.3,0-0.4,0.1c-0.1,0.1-0.3,0.2-0.3,0.4h-0.3v-3.7h0.3c0.2,1,0.6,1.8,1.2,2.4
				c0.6,0.6,1.3,0.8,2,0.8c0.5,0,1-0.1,1.3-0.4c0.3-0.3,0.5-0.6,0.5-1c0-0.2-0.1-0.5-0.2-0.7c-0.1-0.2-0.3-0.4-0.6-0.6
				c-0.3-0.2-0.7-0.5-1.3-0.8c-0.9-0.4-1.5-0.8-1.9-1.1c-0.4-0.3-0.7-0.7-0.9-1c-0.2-0.4-0.3-0.8-0.3-1.3c0-0.8,0.3-1.5,0.9-2
				c0.6-0.6,1.3-0.8,2.2-0.8c0.3,0,0.6,0,0.9,0.1c0.2,0.1,0.5,0.2,0.8,0.3c0.3,0.2,0.6,0.2,0.7,0.2c0.1,0,0.2,0,0.3-0.1
				c0.1-0.1,0.1-0.3,0.2-0.6H303.4z"/>
		</g>
		<g id="west">
			<path class="st27" d="M266.4,1001.5v0.3c-0.2,0-0.3,0.1-0.5,0.2c-0.1,0.1-0.2,0.2-0.3,0.4c0,0.1-0.2,0.4-0.5,1.1l-3.1,8.1h-0.3
				l-2.4-6.4l-2.7,6.4h-0.3l-3.2-8.1c-0.3-0.8-0.6-1.3-0.7-1.5c-0.1-0.2-0.4-0.3-0.7-0.3v-0.3h4.3v0.3c-0.3,0-0.6,0.1-0.7,0.2
				c-0.1,0.1-0.2,0.2-0.2,0.4c0,0.2,0.1,0.6,0.4,1.2l1.9,4.8l1.5-3.7l-0.4-1c-0.2-0.6-0.4-1-0.5-1.1c-0.1-0.2-0.3-0.3-0.4-0.4
				c-0.2-0.1-0.4-0.1-0.7-0.1v-0.3h4.8v0.3c-0.3,0-0.6,0-0.7,0.1c-0.1,0-0.2,0.1-0.2,0.2c-0.1,0.1-0.1,0.2-0.1,0.3
				c0,0.1,0.1,0.5,0.3,1l1.8,4.7l1.6-4.2c0.2-0.4,0.3-0.7,0.3-0.9c0-0.2,0.1-0.3,0.1-0.4c0-0.2-0.1-0.4-0.2-0.5
				c-0.1-0.1-0.4-0.2-0.8-0.2v-0.3H266.4z"/>
		</g>
		<g id="east">
			<path class="st27" d="M258.3,916.4v4h0.2c0.6,0,1.1-0.2,1.4-0.6c0.3-0.4,0.5-1,0.5-1.7h0.3v5.2h-0.3c-0.1-0.6-0.2-1-0.4-1.4
				c-0.2-0.4-0.4-0.6-0.7-0.7s-0.6-0.2-1.1-0.2v2.8c0,0.5,0,0.9,0.1,1c0,0.1,0.1,0.2,0.3,0.3c0.1,0.1,0.3,0.1,0.6,0.1h0.6
				c0.9,0,1.7-0.2,2.2-0.6c0.6-0.4,1-1.1,1.2-1.9h0.3l-0.4,3.1h-8.5v-0.3h0.3c0.3,0,0.5-0.1,0.7-0.2c0.1-0.1,0.2-0.2,0.3-0.3
				c0.1-0.1,0.1-0.4,0.1-0.9v-6.5c0-0.4,0-0.7,0-0.8c0-0.2-0.1-0.3-0.3-0.4c-0.2-0.1-0.4-0.2-0.8-0.2h-0.3v-0.3h8.3v2.9h-0.3
				c-0.1-0.7-0.3-1.2-0.6-1.5c-0.3-0.3-0.6-0.5-1.1-0.7c-0.3-0.1-0.8-0.1-1.5-0.1H258.3z"/>
		</g>
	</g>
	<g id="arena_x5F_icon">
		<circle class="st46" cx="817.8" cy="971.6" r="21.4"/>
		<g id="player">
			<g>
				<path class="st5" d="M817.4,980.2l-0.2,0.5c-0.2,0.4-0.2,0.8,0.1,1.2c0.2,0.3,0.6,0.5,1,0.5c0.4,0,0.8-0.3,1-0.7l0.3-0.7
					L817.4,980.2C817.5,980.3,817.4,980.3,817.4,980.2z"/>
				<path class="st5" d="M809.3,979.5l-0.6,0.4c-0.5,0.4-0.7,1.1-0.3,1.6c0.4,0.5,1.1,0.7,1.6,0.3l0.7-0.5L809.3,979.5
					C809.3,979.5,809.3,979.5,809.3,979.5z"/>
				<path class="st5" d="M811.5,965.8C811.5,965.8,811.5,965.8,811.5,965.8l2.1-1l-0.1-0.3c-0.3-0.6-0.9-0.8-1.5-0.6
					c-0.3,0.1-0.5,0.4-0.6,0.7c-0.1,0.3-0.1,0.6,0.1,0.9L811.5,965.8z"/>
				<path class="st5" d="M817.9,961.8c-2.3,0.2-2.1,2.3-1.8,3.4c0.1,0.4,0.4,0.6,0.8,0.6l1.1-0.1c0.3,0,0.6-0.3,0.5-0.6
					c0-0.3,0.2-0.6,0.5-0.6l1.6-0.1c0.3,0,0.3-0.3,0.3-0.5C821.1,963,820.6,961.5,817.9,961.8z"/>
				<path class="st5" d="M819.3,965.1c0,0.7-0.6,1.2-1.2,1.3c0,0-1.2,0.1-1.2,0.1c0.5,1,1.6,1.6,2.7,1.3s1.8-1.3,1.7-2.5
					c0-0.2,0-0.3-0.1-0.5c-0.1,0.1-0.3,0.1-0.4,0.1L819.3,965.1z"/>
				<path class="st5" d="M825.6,966.2l-0.3-2.3c0-0.4,0.1-0.8,0.4-1l2.2-1.9c0,0,0.1-0.1,0.1-0.1c0.2-0.2,0.3-0.5,0.3-0.8
					c0-0.3-0.2-0.6-0.4-0.7c-0.6-0.5-1.4-0.4-1.9,0.1l-2.1,1.9c-0.3,0.3-0.4,0.7-0.4,1.1l0.7,3.6l0,0c-0.1,0.1-0.2,0.1-0.3,0.2
					l-0.2,0.2l1.8,1.5l0,0l-0.5,0.6c0,0-1.8-1.5-1.8-1.5l-1.4,1.5c-0.2,0.2-0.6,0.3-0.9,0.2c-0.3-0.2-0.6-0.3-1-0.4l-3.2-1.1
					c-0.5-0.2-1-0.2-1.5-0.2l-0.2,0c-0.2,0-0.3-0.1-0.4-0.2l-0.7-1.5c0,0-2.1,1-2.1,1l1,2c0.4,0.7,1.2,1.2,2,1l0.6-0.1l-1.7,6.6
					c-0.1,0.3-0.3,0.6-0.5,0.8l-3.2,2.3l1.4,1.8c0,0,0,0,0,0l3.7-2.6c0.2-0.2,0.4-0.4,0.5-0.6l0.3-0.5c0.2-0.4,0.7-0.5,1-0.4
					l1.2,0.6c0.2,0.1,0.3,0.3,0.4,0.4c0.1,0.2,0.1,0.4,0,0.6l-0.6,1.2l2.2,0.8l0.9-1.6c0.6-1.2,0.1-2.5-1.1-3.1l-1.8-0.9
					c-0.2-0.1-0.3-0.3-0.4-0.5c-0.1-0.2,0-0.4,0.1-0.6l1.7-3l1,0.5c0.9,0.5,2.1,0.3,2.8-0.5l1.6-1.7l1.5,8.3c0,0.2,0.2,0.3,0.4,0.3
					c0.2,0,0.4-0.2,0.3-0.4l-1.2-9.4C826.1,967.2,826,966.5,825.6,966.2"/>
			</g>
		</g>
		<line id="line1_1_" class="st47" x1="806.7" y1="983.9" x2="829" y2="983.9"/>
		<line id="line2_1_" class="st47" x1="809.4" y1="985.4" x2="826.1" y2="985.4"/>
	</g>
	<g id="daylily_x5F_icon">
		<g id="pin_4_">
			<path class="st48" d="M1357.1,203.2c0-22.5-18.3-40.8-40.8-40.8s-40.8,18.3-40.8,40.8c0,22.1,17.6,40.1,39.5,40.8v56.3l1.3,2.2
				l1.3-2.2V244C1339.5,243.3,1357.1,225.3,1357.1,203.2z"/>
			<circle class="st5" cx="1316.2" cy="203.2" r="38.8"/>
		</g>
		<path id="daylily_x5F_outside" class="st27" d="M1339.7,187.3c-1.3-1.6-8.4,0.3-16.1,4.8c-0.3,0.2-0.7,0.1-0.9-0.2
			c-0.1-0.1-0.1-0.2-0.1-0.3c0.3-8.7-0.2-15.2-2.2-15.5c-2-0.3-5,5.6-7,14c-0.1,0.4-0.4,0.6-0.8,0.5c-0.1,0-0.3-0.1-0.3-0.2
			c-6.1-6.4-11.2-10.1-12.8-8.9c-1.6,1.2,0.7,7,5.4,14.4c0.2,0.3,0.1,0.7-0.2,0.9c-0.1,0.1-0.3,0.1-0.4,0.1
			c-9-0.4-15.9,0.6-16.2,2.6c-0.3,2,6.2,4.4,14.9,6.5c0.4,0.1,0.6,0.5,0.5,0.8c0,0.1-0.1,0.2-0.2,0.3c-6.6,5.9-11.5,10.9-10.2,12.5
			c1.3,1.6,8.4-0.7,16-5.2c0.3-0.2,0.7-0.1,0.9,0.2c0.1,0.1,0.1,0.2,0.1,0.4c-0.4,8.7-0.4,15.2,1.6,15.5c2,0.3,5.6-5.6,7.7-14.2
			c0.1-0.4,0.4-0.6,0.8-0.5c0.1,0,0.3,0.1,0.3,0.2c6,6.5,10.4,10.8,12,9.6c1.6-1.2,0-7.5-4.5-15c-0.2-0.3-0.1-0.7,0.2-0.9
			c0.1-0.1,0.2-0.1,0.4-0.1c8.9,0.4,15.7-0.1,16-2.1c0.3-2-6.1-4.8-14.8-7c-0.3-0.1-0.6-0.4-0.5-0.7c0-0.2,0.1-0.3,0.2-0.4
			C1335.9,193.6,1340.9,188.9,1339.7,187.3z"/>
		<path id="daylily_x5F_inside" class="st5" d="M1327.2,196.7c-9,4.9-7.8,2.1-3.7-7.6c-4.2,9.5-7.1,11.5-6.4,1.9
			c-1,9.6-3.8,7.2-11.7,0.3c7.7,7.1,9,10.3,1.3,4.7c7.9,5.6,7.8,5.6-0.4,0.6c8.1,5.1,4.3,5.2-5.9,6.2c10.2-0.7,13.3,0.3,4.3,3.1
			c9.6-2.5,9.6-2.4,0.4,1.5c8.9-3.7,6.6-1.7,0,6.3c6.8-7.8,10.2-8.7,7.5,0.8c3.1-9.7,3.1-9.6,1.8,0.5c1.5-9.8,3.2-7,3.4,3.2
			c0-10.3,0.3-11.8,6.5-5.5c-5.4-7.7-3.4-6.6,3.6,0.6c-6.7-7.5-9-9.9,0.9-7.1c-10.1-3.1-10.3-3.1-0.5-0.8c-9.8-2.3-9.5-2.4,0.8-1
			c-10.1-1.6-7-2.5,3-1.9C1321.8,201.8,1320.2,201.6,1327.2,196.7z"/>
	</g>
	<g id="water_x5F_feature_x5F_icon">
		<g id="pin_2_">
			<path class="st48" d="M804.7,665.6c0-22.5-18.3-40.8-40.8-40.8c-22.5,0-40.8,18.3-40.8,40.8c0,22.1,17.6,40.1,39.5,40.8v56.3
				l1.3,2.2l1.3-2.2v-56.3C787.1,705.7,804.7,687.7,804.7,665.6z"/>
			<circle class="st5" cx="763.9" cy="665.6" r="38.8"/>
		</g>
		<g id="water_x5F_drop">
			<g id="park_map">
				<g id="water_feature_icon">
					<path id="droplet" class="st27" d="M764.5,634.5l-16.2,32.4c-6.1,12.1,2.4,27,15.9,27.1h0.6c13.5-0.1,21.9-15,15.9-27.1
						L764.5,634.5z"/>
				</g>
			</g>
		</g>
		<g id="fountain">
			<ellipse class="st5" cx="764.5" cy="678.1" rx="13" ry="3.4"/>
			<ellipse class="st5" cx="764.5" cy="683.3" rx="7.9" ry="1.7"/>
			<ellipse class="st5" cx="764.5" cy="686.8" rx="5" ry="1.7"/>
			<g>
				<path class="st5" d="M764.5,676.2c-0.3-3.2-1.5-9.5-5.9-12.6c-0.9-0.5-1.2-1.3-0.9-2.3c0.6-2.3,4.5-5.1,6.9-5.1
					c2.2,0,5.9,2.3,6.7,4.7c0.4,1.1,0.1,2-0.8,2.7C766.1,666.6,764.8,673,764.5,676.2z"/>
				<path class="st27" d="M764.5,656.3c2.1,0,5.8,2.3,6.6,4.7c0.4,1,0.1,1.9-0.7,2.5c-3.2,2.2-4.7,6.1-5.4,8.9
					c-0.2,1-0.4,1.9-0.5,2.7c-0.1-0.8-0.3-1.7-0.5-2.7c-0.7-2.9-2.2-6.7-5.3-9c-0.8-0.5-1.1-1.2-0.9-2.1
					C758.4,659.1,762.2,656.3,764.5,656.3 M764.5,656c-3.3,0-9.6,5.5-6,7.6c6,4.2,6,14.4,6,14.5c0,0,0-10.3,6.1-14.5
					C773.9,661,767.8,656,764.5,656L764.5,656z M764.5,678.1L764.5,678.1L764.5,678.1L764.5,678.1z"/>
			</g>
		</g>
	</g>
	<g id="bridge_x5F_icon">
		<g id="pin_1_">
			<path class="st48" d="M1789.6,385.4c0-22.5-18.3-40.8-40.8-40.8s-40.8,18.3-40.8,40.8c0,22.1,17.6,40.1,39.5,40.8v56.3l1.3,2.2
				l1.3-2.2v-56.3C1772,425.5,1789.6,407.5,1789.6,385.4z"/>
			<circle class="st5" cx="1748.8" cy="385.4" r="38.8"/>
		</g>
		<g id="bridge_2_">
			<path class="st27" d="M1748.8,375.9c-10.2,0-19.9,3.1-26.3,7.3v14.9c0,0.6,0.5,1,1,1h9c0.6,0,1-0.5,1-1v-0.7
				c0-8.4,6.7-15.3,15.1-15.3c8.4,0,15.2,6.8,15.2,15.2v0.8c0,0.6,0.5,1,1,1h9c0.6,0,1-0.5,1-1v-14.9
				C1768.6,378.9,1758.9,375.9,1748.8,375.9z"/>
			<path class="st27" d="M1773.5,371.3c-0.9,0-1.5,0.7-1.5,1.5v0.2c-2.4-1.3-5.1-2.5-8.1-3.5v-1.7c0-0.9-0.7-1.5-1.5-1.5
				c-0.9,0-1.5,0.7-1.5,1.5v0.8c-3-0.8-6.5-1.3-10.5-1.5v-1.2c0-0.9-0.7-1.5-1.5-1.5s-1.5,0.7-1.5,1.5v1.2
				c-3.9,0.1-7.5,0.7-10.5,1.5v-0.8c0-0.9-0.7-1.5-1.5-1.5c-0.9,0-1.5,0.7-1.5,1.5v1.7c-3,1-5.7,2.2-8.1,3.5v-0.2
				c0-0.9-0.7-1.5-1.5-1.5c-0.9,0-1.5,0.7-1.5,1.5v8.7c1-0.6,2.1-1.1,3.1-1.6v-3.3c1.2-0.8,4-2.4,8.1-3.9v4.1
				c1.1-0.3,2.1-0.5,3.1-0.8v-4.3c3-0.8,6.5-1.4,10.5-1.6v4.6c1,0,2.1,0,3.1,0v-4.6c4,0.1,7.5,0.8,10.5,1.6v4.3c1,0.2,2,0.5,3.1,0.8
				v-4.1c3.2,1.1,6,2.5,8.1,3.9v3.3c1.1,0.5,2.1,1.1,3.1,1.6v-8.7C1775.1,372,1774.4,371.3,1773.5,371.3z"/>
		</g>
		<path id="wave_x5F_1" class="st49" d="M1769.2,404c-0.1,5.3-13.6,5.3-13.6,0c0,5.3-13.6,5.3-13.6,0c0,5.3-13.4,5.4-13.4,0"/>
		<path id="wave_x5F_2" class="st49" d="M1764.8,410.4c-0.1,4.2-10.7,4.2-10.7,0c0,4.2-10.7,4.2-10.7,0c0,4.2-10.6,4.2-10.6,0"/>
	</g>
	<g id="peony_x5F_icon">
		<g id="pin_3_">
			<path class="st48" d="M1548.2,751c0-22.5-18.3-40.8-40.8-40.8s-40.8,18.3-40.8,40.8c0,22.1,17.6,40.1,39.5,40.8V848l1.3,2.2
				l1.3-2.2v-56.3C1530.6,791,1548.2,773.1,1548.2,751z"/>
			<circle class="st5" cx="1507.5" cy="750.9" r="38.8"/>
		</g>
		<g id="peony">
			<path class="st27" d="M1524.4,732.9l-0.2,4.6c-0.1,2.8,1.6,5.4,4.2,6.3l4.4,1.6c3.3,1.2,5.1,4.8,3.9,8.2
				c-0.5,1.5-1.6,2.8-3.1,3.5l-4.1,2.2c-2.4,1.3-3.8,4-3.3,6.7l0.8,4.6c0.6,3.5-1.7,6.8-5.2,7.4c-1.6,0.3-3.2,0-4.5-0.9l-3.9-2.5
				c-2.4-1.5-5.4-1.3-7.5,0.5l-3.6,3c-2.7,2.3-6.7,1.9-9-0.7c-1-1.2-1.6-2.8-1.5-4.4l0.2-4.7c0.1-2.8-1.6-5.3-4.2-6.3l-4.4-1.4
				c-3.3-1.2-5.1-4.9-3.9-8.2c0.5-1.5,1.6-2.8,3.1-3.5l4.1-2.2c2.5-1.3,3.8-4.1,3.3-6.9l-0.8-4.6c-0.6-3.5,1.7-6.8,5.2-7.4
				c1.6-0.3,3.2,0,4.6,0.9l3.9,2.5c2.4,1.5,5.4,1.3,7.5-0.5l3.6-3c2.7-2.3,6.8-1.9,9,0.8C1523.9,729.8,1524.4,731.3,1524.4,732.9z"
				/>
			<path class="st5" d="M1524.1,748.1L1524.1,748.1c-1.3,2.2-1,5,0.7,6.9l0,0c2.1,2.4,1.9,6.1-0.5,8.2c-1.1,1-2.5,1.5-4,1.4l0,0
				c-2.6-0.1-5,1.5-5.8,4l0,0c-1,3.1-4.2,4.8-7.3,3.8c-1.5-0.5-2.7-1.5-3.5-2.9l0,0c-1.2-2.2-3.7-3.4-6.2-2.9l0,0
				c-3.2,0.6-6.2-1.5-6.8-4.7c-0.3-1.4,0-2.8,0.8-4.1l0,0c1.3-2.2,1.1-5-0.6-6.9l0,0c-2.1-2.4-1.9-6.2,0.6-8.3
				c1.1-1,2.5-1.5,3.9-1.4l0,0c2.6,0.1,4.9-1.5,5.7-4l0,0c1-3.1,4.3-4.8,7.3-3.8c1.5,0.5,2.7,1.5,3.4,2.9l0,0
				c1.2,2.2,3.7,3.4,6.2,2.9l0,0c3.2-0.6,6.2,1.6,6.8,4.8C1525,745.5,1524.8,746.9,1524.1,748.1z"/>
			<path class="st50" d="M1519.9,749.8L1519.9,749.8c-1,1.6-0.8,3.7,0.4,5.1l0,0c1.6,1.8,1.4,4.5-0.4,6c-0.8,0.7-1.9,1.1-2.9,1.1
				l0,0c-1.9,0-3.6,1.1-4.2,2.9l0,0c-0.8,2.3-3.2,3.4-5.5,2.7c-1-0.3-1.8-1-2.4-2l0,0c-0.9-1.6-2.7-2.5-4.6-2.2l0,0
				c-2.3,0.5-4.6-1.1-5.1-3.4c-0.2-1,0-2.1,0.5-3l0,0c1-1.6,0.8-3.7-0.4-5.1l0,0c-1.6-1.8-1.4-4.5,0.4-6.1c0.8-0.7,1.8-1.1,2.9-1.1
				l0,0c1.9,0,3.6-1.1,4.1-2.9l0,0c0.8-2.2,3.2-3.4,5.5-2.7c1,0.3,1.8,1.1,2.4,2l0,0c0.9,1.6,2.8,2.5,4.6,2.2l0,0
				c2.3-0.5,4.6,1,5,3.4C1520.6,747.8,1520.4,748.9,1519.9,749.8z"/>
			<circle class="st50" cx="1508.1" cy="753.5" r="5"/>
		</g>
	</g>
	<g id="parking_x5F_icon">
		<circle class="st46" cx="1282.7" cy="972.7" r="21.4"/>
		<g id="P">
			<path class="st5" d="M1281.2,986.1h-6.8v-26.3h10.9c3,0,5.2,0.8,6.8,2.3c1.6,1.5,2.4,3.7,2.4,6.5c0,2.8-0.8,5-2.4,6.5
				c-1.6,1.5-3.8,2.3-6.8,2.3h-4V986.1z M1281.2,971.8h2.3c2.5,0,3.8-1.1,3.8-3.3c0-2.2-1.3-3.3-3.8-3.3h-2.3V971.8z"/>
		</g>
	</g>
</g>
<g id="names">
	<rect x="859.7" y="948.7" class="st29" width="158.8" height="57.7"/>
	<text id="childrens_x5F_arena_x5F_text" transform="matrix(1 0 0 1 859.7256 966.4786)"><tspan x="0" y="0" class="st39 st51">Childrens</tspan><tspan x="0" y="28.8" class="st39 st51">Arena</tspan></text>
	<text id="accessible_x5F_parking_x5F_text" transform="matrix(1 0 0 1 1327.9033 969.2267)"><tspan x="0" y="0" class="st39 st51">Accessible</tspan><tspan x="0" y="28.8" class="st39 st51">Parking</tspan></text>
</g>
<g id="names_x5F_location">
	<g id="memory_x5F_garden_x5F_text_1_">
		<path class="st52" d="M636,441.7H449.6c-2.4,0-4.3-1.9-4.3-4.3V411c0-2.4,1.9-4.3,4.3-4.3H636c2.4,0,4.3,1.9,4.3,4.3v26.4
			C640.3,439.8,638.4,441.7,636,441.7z"/>
		<text id="memory_x5F_garden_x5F_text" transform="matrix(1 0 0 1 456.111 430.0885)" class="st5 st53 st40">Memory Garden</text>
	</g>
	<g id="oshawa_x5F_creek_x5F_text_1_">
		<path class="st54" d="M1030.3,522.9H863.5c-2.2,0-4.1-1.8-4.1-4.1v-26.9c0-2.2,1.8-4.1,4.1-4.1h166.9c2.2,0,4.1,1.8,4.1,4.1v26.9
			C1034.4,521.1,1032.6,522.9,1030.3,522.9z"/>
		<text id="oshawa_x5F_creek_x5F_text" transform="matrix(1 0 0 1 868.6077 512.2314)" class="st5 st53 st40">Oshawa Creek</text>
	</g>
	<g id="peony_x5F_garden">
		<path class="st54" d="M1551.3,903.2h-166.9c-2.2,0-4.1-1.8-4.1-4.1v-26.9c0-2.2,1.8-4.1,4.1-4.1h166.9c2.2,0,4.1,1.8,4.1,4.1v26.9
			C1555.4,901.4,1553.5,903.2,1551.3,903.2z"/>
		<text id="peony_x5F_garden_x5F_text" transform="matrix(1 0 0 1 1391.8695 892.6009)" class="st5 st53 st40">Peony Garden</text>
	</g>
	<g id="main_x5F_entrance_x5F_text_1_">
		<path class="st54" d="M1333.7,903.2h-166.9c-2.2,0-4.1-1.8-4.1-4.1v-26.9c0-2.2,1.8-4.1,4.1-4.1h166.9c2.2,0,4.1,1.8,4.1,4.1v26.9
			C1337.8,901.4,1336,903.2,1333.7,903.2z"/>
		<text id="main_x5F_entrance_x5F_text" transform="matrix(1 0 0 1 1173.2917 892.6009)" class="st5 st53 st40">Main Entrance</text>
	</g>
	<g id="rotary_x5F_bridge_x5F_text_1_">
		<path class="st55" d="M1693.7,399h-157.1c-2.2,0-3.9-1.8-3.9-3.9V368c0-2.2,1.8-3.9,3.9-3.9h157.1c2.2,0,3.9,1.8,3.9,3.9v27.1
			C1697.7,397.3,1695.9,399,1693.7,399z"/>
		<text id="rotary_x5F_bridge_x5F_text" transform="matrix(1 0 0 1 1542.8354 387.3832)" class="st5 st53 st40">Rotary Bridge</text>
	</g>
	<g id="daylily_x5F_text">
		<path class="st56" d="M1572.9,342.3h-196.2c-2.4,0-4.4-2-4.4-4.4v-26.2c0-2.4,2-4.4,4.4-4.4h196.2c2.4,0,4.4,2,4.4,4.4v26.2
			C1577.3,340.4,1575.3,342.3,1572.9,342.3z"/>
		<text id="daylily_x5F_collection_x5F_text" transform="matrix(1 0 0 1 1382.2136 331.6929)" class="st5 st53 st40">Daylily Collection</text>
	</g>
	<g id="waterfall_x5F_garden_x5F_text_1_">
		<path class="st57" d="M709,677.7H517.7c-2.4,0-4.3-1.9-4.3-4.3V647c0-2.4,1.9-4.3,4.3-4.3H709c2.4,0,4.3,1.9,4.3,4.3v26.3
			C713.4,675.7,711.4,677.7,709,677.7z"/>
		<text id="waterfall_x5F_garden_x5F_text" transform="matrix(1 0 0 1 521.016 667.0331)" class="st5 st53 st40">Waterfall Garden</text>
	</g>
	<g id="bike_x5F_path_x5F_text_1_">
		<path class="st54" d="M1417.9,541.2h-187.1c-3,0-5.4-2.4-5.4-5.4v-43.5c0-3,2.4-5.4,5.4-5.4h187.1c3,0,5.4,2.4,5.4,5.4v43.5
			C1423.3,538.8,1420.9,541.2,1417.9,541.2z"/>
		<text id="joseph_x5F_kolodzie_x5F_bike_x5F_path_x5F_text" transform="matrix(1 0 0 1 1238.7111 509.4664)"><tspan x="0" y="0" class="st5 st53 st40">Joseph Kolodzie</tspan><tspan x="37" y="25.2" class="st5 st53 st40">Bike Path</tspan></text>
	</g>
</g>
</svg>
